<svg version="1.1" id="Layer_1" xmlns="http://www.w3.org/2000/svg" xmlns:xlink="http://www.w3.org/1999/xlink" x="0px" y="0px"
	 width="100%" viewBox="0 0 1024 1024" enable-background="new 0 0 1024 1024" xml:space="preserve">
<path fill="#000000" opacity="1.000000" stroke="none" 
	d="
M72.773659,484.715332 
	C73.017921,465.034454 75.965553,446.152283 79.213799,427.269592 
	C83.824333,400.467621 91.277374,374.450562 101.140015,349.203735 
	C115.808281,311.655212 135.283600,276.694275 159.783615,244.579544 
	C176.807617,222.264420 195.617157,201.603516 216.558838,182.939346 
	C249.462006,153.614578 285.826477,129.537628 326.028473,111.308006 
	C350.615509,100.159012 375.990082,91.295052 402.158997,84.777412 
	C414.893921,81.605652 427.885712,79.637558 440.841187,77.453453 
	C461.782562,73.923050 482.877594,72.461288 503.974030,72.442024 
	C520.049744,72.427345 536.241699,72.558212 552.284729,74.898903 
	C563.453796,76.528481 574.689392,77.630547 585.829651,79.583488 
	C596.643433,81.479202 607.366882,83.763496 617.946411,86.576202 
	C640.126099,92.472954 661.713379,100.091301 682.746338,109.364365 
	C711.815125,122.180267 739.077332,138.070343 764.638428,156.841095 
	C798.402710,181.635864 828.033020,210.707886 853.302795,244.157852 
	C870.704041,267.192230 885.787720,291.623627 898.385254,317.645477 
	C910.810425,343.311584 920.409729,369.919617 927.685730,397.472290 
	C932.869751,417.103088 935.997192,437.012207 938.682251,457.102631 
	C940.763672,472.676514 941.667053,488.325195 941.814392,503.889282 
	C941.969604,520.291504 941.169067,536.800232 939.062195,553.200073 
	C937.518372,565.216919 936.168335,577.267273 934.036255,589.184448 
	C931.725037,602.102722 928.529907,614.849670 924.937256,627.481873 
	C916.446350,657.336731 904.610779,685.840637 889.980286,713.181946 
	C872.215027,746.381226 850.447754,776.734436 824.686890,804.211975 
	C791.722229,839.373047 754.107605,868.526611 711.560181,891.177795 
	C683.003845,906.380493 653.160583,918.348694 621.798889,926.644958 
	C601.675598,931.968323 581.348633,935.924194 560.751709,938.582275 
	C530.402527,942.498840 499.909729,941.952026 469.481384,940.230225 
	C450.741028,939.169800 432.154968,936.028503 413.793457,932.014832 
	C360.400635,920.343872 311.022095,899.256836 265.488953,868.959229 
	C231.680206,846.462952 201.909836,819.470642 175.513504,788.795959 
	C151.624130,761.034668 131.884186,730.447571 115.715050,697.524902 
	C105.493050,676.711487 97.042618,655.189514 90.279556,633.104370 
	C81.397995,604.101135 75.692177,574.269104 73.380173,544.055298 
	C71.886719,524.538391 70.230286,504.833496 72.773659,484.715332 
M456.546692,108.205276 
	C445.523041,108.736420 434.771423,111.195610 424.086792,113.554115 
	C401.376373,118.567184 379.087891,125.059029 357.483826,133.893356 
	C321.828461,148.473495 288.705566,167.365128 258.473419,191.205643 
	C230.747787,213.069580 206.301865,238.138107 185.133972,266.488190 
	C166.810806,291.028381 151.310272,317.170258 138.953552,345.122406 
	C124.977791,376.736877 114.980019,409.620514 109.502754,443.801666 
	C106.739075,461.048523 105.103760,478.450684 104.428551,495.873138 
	C103.433533,521.547241 105.967850,547.041809 109.894295,572.422302 
	C113.288139,594.360046 118.831055,615.777893 126.048119,636.682495 
	C138.877213,673.842712 156.618927,708.522583 179.547012,740.608582 
	C201.007507,770.640991 225.930679,797.313965 254.624954,820.399048 
	C286.870453,846.341125 322.360474,866.847839 360.949768,881.911377 
	C380.478394,889.534485 400.520935,895.396912 420.981293,899.973083 
	C434.298218,902.951538 447.722473,904.997009 461.263153,906.550659 
	C477.155151,908.374268 493.156555,910.087158 509.058624,909.538696 
	C533.442200,908.697754 557.820740,907.049988 581.886963,902.039795 
	C602.113098,897.829102 622.137878,892.919434 641.497192,885.872253 
	C676.507446,873.127747 709.375793,856.098816 739.795837,834.430420 
	C776.913879,807.990967 808.602783,776.186829 834.964172,739.040771 
	C853.927856,712.318665 869.253418,683.620605 881.375732,653.209106 
	C888.464233,635.426025 894.108215,617.111328 898.376038,598.507202 
	C901.820740,583.491333 904.786011,568.323608 906.181519,552.834351 
	C907.721313,535.744141 909.496948,518.689026 908.870117,501.540314 
	C908.001648,477.777802 906.338684,454.099976 901.301025,430.720520 
	C899.000854,420.045715 897.148804,409.233643 894.141113,398.759094 
	C886.418396,371.863678 876.159729,345.947021 863.184570,321.089752 
	C847.292969,290.645233 827.801270,262.745697 804.791260,237.321915 
	C786.867798,217.518188 767.101685,199.739761 745.578918,183.834885 
	C717.973816,163.435287 688.315857,146.847137 656.503906,134.061829 
	C632.695007,124.492973 608.123901,117.632095 582.986633,112.402252 
	C562.202148,108.078003 541.202942,106.463768 520.140869,105.056648 
	C513.849182,104.636307 507.563263,104.009872 501.189056,104.605568 
	C486.628418,105.966339 471.936432,105.750771 456.546692,108.205276 
z"/>
<path fill="#000000" opacity="1.000000" stroke="none" 
	d="
M494.330231,586.907166 
	C495.833405,608.127563 496.860992,628.911682 500.359100,649.441589 
	C500.932190,652.805176 500.593658,656.065063 500.653259,659.373596 
	C500.692688,661.561401 499.590149,662.737244 497.557678,661.755615 
	C494.929779,660.486450 492.126831,660.220459 489.376434,659.642273 
	C483.506165,658.408508 480.874115,654.595154 479.886780,648.895813 
	C477.672241,636.112305 474.584229,623.454041 472.928436,610.606079 
	C470.546844,592.126343 467.921265,573.675964 465.627899,555.181824 
	C462.546326,530.331177 462.375031,505.364746 461.257629,480.443085 
	C460.452087,462.477325 460.908478,444.453857 460.852997,426.455933 
	C460.790863,406.297821 458.520142,386.229126 458.497559,366.061096 
	C458.491821,360.931488 460.177582,357.078400 463.677765,353.643738 
	C470.446625,347.001648 477.119720,340.261902 483.899261,333.630920 
	C485.637939,331.930359 487.449524,329.441711 490.233826,330.638458 
	C493.150391,331.892059 492.198395,334.961456 492.090881,337.338654 
	C490.968994,362.147583 491.360657,386.973541 491.236237,411.792175 
	C491.200378,418.945984 491.792084,426.101410 492.011932,433.258698 
	C492.128693,437.060120 493.827911,438.073975 497.516022,437.320923 
	C520.884583,432.549225 544.406616,429.139435 568.361328,429.667236 
	C574.544617,429.803528 580.607910,430.840332 586.718201,431.533844 
	C593.128723,432.261444 594.354187,431.096558 594.649109,424.764313 
	C595.652466,403.229309 592.546387,381.877930 591.899963,360.417603 
	C591.634216,351.595612 592.284668,342.765625 591.373474,333.943604 
	C590.986206,330.194580 593.441772,328.839233 596.811646,330.799469 
	C598.947876,332.042114 600.916931,333.647736 602.750000,335.321594 
	C608.404114,340.484680 613.832581,345.900482 619.589539,350.943207 
	C623.921143,354.737366 626.042053,359.340729 626.038574,364.973419 
	C626.004272,421.472260 626.553833,477.980988 625.638672,534.465820 
	C625.175293,563.063660 622.227722,591.631836 620.038025,620.185364 
	C619.276794,630.111145 617.490479,639.963623 616.031494,649.828674 
	C615.079285,656.266907 606.066406,661.638916 599.710022,659.740051 
	C595.823425,658.579041 595.315552,655.550293 595.630737,652.181152 
	C596.592285,641.900879 597.606506,631.624512 597.703979,621.288452 
	C597.770020,614.288940 597.880859,607.286743 597.757568,600.289490 
	C597.604736,591.618835 598.670166,582.985474 598.638428,574.348083 
	C598.534607,546.067261 598.239685,517.783813 597.627563,489.509888 
	C597.404663,479.215820 595.217468,469.006531 595.564941,458.642883 
	C595.661072,455.777191 593.783752,454.515656 591.417908,453.725403 
	C578.102356,449.277557 564.392334,446.514130 550.457947,445.290771 
	C533.852539,443.832825 517.188599,444.712860 500.555542,445.323273 
	C493.430420,445.584747 492.104919,447.189423 492.268311,454.095001 
	C492.614532,468.727234 492.577515,483.362091 492.640076,497.996979 
	C492.766113,527.473206 493.714417,556.945923 494.330231,586.907166 
z"/>
<path fill="#000000" opacity="1.000000" stroke="none" 
	d="
M428.181946,515.656372 
	C429.042847,496.494202 425.440796,477.996765 425.747040,459.333588 
	C425.812836,455.324951 423.686035,454.086121 420.068848,454.264832 
	C403.949646,455.061157 387.732330,454.701050 371.869476,458.461517 
	C369.626984,458.993164 366.899475,460.068237 365.613586,457.351318 
	C364.183167,454.329010 367.015900,452.584869 369.015411,451.529083 
	C374.743286,448.504578 380.662628,445.817108 386.615448,443.249298 
	C400.222534,437.379730 414.533600,433.486633 428.499451,428.622314 
	C432.807098,427.121918 437.458710,427.608398 441.888062,428.074677 
	C445.933716,428.500549 447.155243,431.860687 447.016907,435.489258 
	C446.750671,442.473022 446.235474,449.446930 445.880707,456.427826 
	C444.704529,479.569183 444.821014,502.656067 446.637299,525.808044 
	C447.833160,541.051819 446.581970,556.471558 447.231171,571.778381 
	C448.055817,591.220825 449.708313,610.627869 450.970581,630.052307 
	C451.186523,633.375549 451.107056,636.720520 451.389435,640.036316 
	C451.986389,647.045532 448.396881,651.355530 442.496643,654.215759 
	C435.264984,657.721436 427.719482,660.407166 419.761993,661.546692 
	C401.513031,664.159973 383.305664,664.146790 365.141571,660.442993 
	C357.806732,658.947388 352.972778,655.339905 350.366028,648.045593 
	C343.628479,629.192261 338.509888,609.962952 334.447571,590.351990 
	C328.412323,561.216309 325.775726,531.729492 325.510376,502.128571 
	C325.310913,479.875885 326.118866,457.551086 329.091187,435.368683 
	C330.661804,423.646820 332.628693,412.040283 335.182556,400.512543 
	C335.353882,399.739105 335.760132,398.930511 334.544708,397.770355 
	C330.349213,403.522156 327.584717,409.799866 326.270142,416.608032 
	C323.810181,429.347687 321.320709,442.100159 319.500061,454.940369 
	C316.785919,474.082336 315.969391,493.364594 315.959747,512.714355 
	C315.949188,533.943115 318.850159,554.831726 321.537018,575.812805 
	C324.045013,595.397156 328.736877,614.395203 334.175140,633.273499 
	C336.109131,639.987122 338.507477,646.567505 340.418335,653.287048 
	C341.294739,656.368958 342.757141,660.073242 338.449127,661.965149 
	C333.494171,664.141235 326.020630,662.043335 324.439270,657.855042 
	C320.617615,647.733276 316.541565,637.651794 313.614349,627.259399 
	C306.875305,603.333740 303.080261,578.827515 300.430450,554.124634 
	C297.455597,526.391357 296.802795,498.557495 298.243164,470.774902 
	C299.170776,452.881958 300.909454,434.923676 304.677338,417.310760 
	C305.580414,413.089417 304.864685,409.864380 301.687164,406.979340 
	C300.359619,405.774048 299.272186,404.227936 298.342438,402.676849 
	C296.429657,399.485870 297.236725,396.892517 300.558960,395.248688 
	C308.060089,391.537109 315.866455,388.761505 324.231506,387.740082 
	C326.540253,387.458160 328.858551,387.149658 331.124176,386.639191 
	C337.616760,385.176300 338.800018,386.055756 338.825043,393.265015 
	C349.866302,382.117432 363.497742,375.882568 377.157898,369.884430 
	C388.574310,364.871521 400.296783,360.528503 412.003723,356.214508 
	C418.889221,353.677124 435.253510,361.285553 438.683014,368.145355 
	C439.710724,370.200989 439.487213,371.772461 437.047546,372.316589 
	C434.945831,372.785278 432.794189,373.133270 430.647247,373.279785 
	C411.157043,374.609924 392.632782,379.311310 375.046539,388.034241 
	C361.619598,394.694092 354.135773,404.463898 352.135468,419.846069 
	C349.993195,436.320129 348.289337,452.843323 346.231812,469.323456 
	C344.472748,483.413422 344.687531,497.603516 346.114960,511.716858 
	C347.655212,526.946350 348.221039,542.246521 350.023865,557.462402 
	C352.554077,578.817749 357.373596,599.734009 361.490692,620.782776 
	C362.889282,627.933044 365.468750,634.844910 367.217316,641.937561 
	C368.034576,645.252686 370.335297,646.037476 373.059326,646.390259 
	C385.597137,648.013794 398.136108,649.646973 410.836761,648.788391 
	C418.328308,648.281921 425.015717,645.353333 431.540436,641.976440 
	C434.192841,640.603699 435.112274,638.142517 434.901581,635.240234 
	C433.720795,618.974915 433.989807,602.637634 432.230774,586.391418 
	C431.354462,578.297974 431.324127,570.114441 430.863342,561.974304 
	C429.998260,546.691101 429.098511,531.409729 428.181946,515.656372 
z"/>
<path fill="#000000" opacity="1.000000" stroke="none" 
	d="
M742.983643,737.229980 
	C706.928162,750.593872 669.639954,757.977966 632.856506,767.226074 
	C625.955750,768.961121 618.800232,769.810120 612.379761,773.320435 
	C609.331299,774.987122 605.912170,772.993225 602.543823,773.702148 
	C585.937134,777.197571 569.330750,780.786987 552.591003,783.529846 
	C538.487122,785.840759 524.579468,789.406128 510.212860,790.197693 
	C501.802155,790.661072 495.534790,787.571655 490.315491,781.061462 
	C467.512207,752.618164 444.519836,724.326538 421.643738,695.941528 
	C415.202087,687.948547 416.281921,681.828491 424.560242,675.908569 
	C430.302948,671.801819 436.876129,669.334290 442.956085,665.909607 
	C444.903839,664.812439 446.869202,664.849365 448.234375,666.912659 
	C449.776825,669.243958 448.628998,671.098206 446.777191,672.513794 
	C442.543732,675.750061 438.268555,678.937744 433.910400,682.003113 
	C430.535095,684.377258 430.417480,686.828796 432.971313,689.927856 
	C441.874115,700.731140 452.325867,710.079285 461.583008,720.546204 
	C463.334961,722.527161 465.251099,723.541016 467.503296,721.232239 
	C476.973785,711.523621 489.701569,709.194580 502.080139,707.325623 
	C516.026855,705.219849 530.242737,704.656982 544.368469,704.047546 
	C556.845947,703.509216 569.421631,703.854248 581.582275,707.006104 
	C590.713928,709.372986 599.010498,713.367126 603.640015,722.638123 
	C607.052734,729.472168 611.894348,735.530945 614.917542,742.628601 
	C616.731873,746.888184 620.551758,746.324768 623.975830,745.565491 
	C631.768433,743.837402 639.534973,741.958313 647.239929,739.873962 
	C673.241150,732.840332 699.501831,726.783630 725.235474,718.722839 
	C732.409302,716.475708 737.369324,712.833557 740.830688,706.055115 
	C752.610046,682.987427 761.577026,658.859192 769.449036,634.239746 
	C776.667053,611.665710 781.593201,588.546265 785.052673,565.211182 
	C787.774231,546.852783 789.986450,528.081787 782.639221,509.999207 
	C778.570984,499.986664 774.211670,490.092712 770.097168,480.098480 
	C763.219910,463.393768 761.819885,445.894684 763.003113,428.098297 
	C763.243774,424.478760 764.314026,420.907867 765.087769,417.333130 
	C765.449646,415.661194 766.089355,413.975311 768.178528,413.965576 
	C770.392395,413.955261 771.542847,415.619110 771.833557,417.460632 
	C772.454651,421.395050 772.871033,425.376282 773.108887,429.354004 
	C773.825928,441.346771 775.020142,453.228455 779.236389,464.623230 
	C783.008057,474.816467 788.473511,484.179749 793.347656,493.826721 
	C801.212891,509.393707 805.636169,525.594299 805.492737,543.250610 
	C805.358093,559.813354 803.511292,576.025452 800.847473,592.360046 
	C798.354553,607.647034 795.860901,622.902039 791.969788,637.865173 
	C786.984924,657.034302 780.924011,675.888062 772.856262,694.029175 
	C767.585510,705.881042 762.740112,717.931335 754.742737,728.390320 
	C751.652893,732.431335 747.399536,734.541992 742.983643,737.229980 
M477.431763,721.873657 
	C468.507660,726.570068 468.295776,727.797424 474.945709,735.131836 
	C483.661285,744.744263 492.643341,754.138733 500.916443,764.119629 
	C505.760681,769.963806 511.099701,770.989258 518.013184,769.441589 
	C534.718384,765.701904 551.481384,762.214233 568.252563,758.778687 
	C575.905762,757.210938 583.225708,754.291992 591.100281,753.567688 
	C594.877930,753.220215 595.455872,750.382751 594.177002,747.229492 
	C592.051147,741.987488 589.752686,736.815613 587.606628,731.581482 
	C586.174377,728.088135 583.413757,725.952942 580.156555,724.582092 
	C567.590271,719.293152 554.268982,717.071838 540.808899,716.355774 
	C528.520935,715.702148 516.172058,716.220215 503.850220,716.166687 
	C494.879333,716.127686 486.421539,718.470276 477.431763,721.873657 
z"/>
<path fill="#000000" opacity="1.000000" stroke="none" 
	d="
M194.920288,428.989868 
	C195.182892,420.004333 195.794327,411.508606 195.601990,403.031128 
	C195.409897,394.562897 199.470276,388.367798 205.867828,384.160187 
	C226.866272,370.349579 247.422836,355.905945 268.171478,341.737335 
	C273.375641,338.183563 278.874023,334.905060 284.601868,332.302612 
	C302.332153,324.246765 315.862091,311.147949 328.574219,296.917175 
	C334.007904,290.834351 339.704529,284.985046 345.327942,279.073608 
	C348.024323,276.239105 350.957245,274.286743 355.301605,274.336182 
	C378.944458,274.605103 402.591858,274.485870 426.234100,274.786255 
	C433.270447,274.875671 439.685120,273.368103 445.946930,270.312195 
	C471.369049,257.905548 496.890472,245.701538 522.264771,233.198502 
	C527.719360,230.510788 532.200195,230.479294 537.597656,233.744034 
	C556.681946,245.287384 576.065430,256.335999 595.333435,267.575684 
	C599.154846,269.804840 602.989746,270.677429 607.654358,270.223633 
	C631.814392,267.873138 656.025818,266.056732 680.206726,263.911865 
	C686.544067,263.349792 692.430542,264.203033 698.037598,267.323792 
	C716.014648,277.329468 733.080933,288.590881 747.009888,303.936249 
	C754.834412,312.556488 762.643616,321.273529 767.792114,331.920776 
	C768.297913,332.966858 768.933594,333.961456 769.334839,335.044464 
	C770.157959,337.265900 771.085815,339.786621 768.509338,341.317932 
	C766.206238,342.686768 764.886414,340.329010 763.564636,339.026184 
	C755.743225,331.316376 749.165894,322.431000 740.736145,315.272705 
	C725.976990,302.739624 710.865601,290.773041 692.686279,283.444702 
	C687.737488,281.449768 682.762878,280.307068 677.163513,280.971405 
	C653.051758,283.832275 628.816223,285.709503 604.894287,290.044189 
	C597.019653,291.471130 591.053528,287.465179 584.958008,283.755890 
	C568.041809,273.461792 551.148926,263.127411 534.346680,252.648956 
	C530.567932,250.292358 527.509033,250.742737 523.738281,252.806213 
	C499.350403,266.152008 474.820709,279.238403 450.383240,292.494171 
	C445.246307,295.280609 439.890076,296.407043 434.071411,296.277344 
	C413.756348,295.824432 393.334717,296.639435 373.160461,294.756165 
	C361.804626,293.696136 354.545044,296.866638 348.163422,305.405457 
	C344.190308,310.721588 339.207581,315.274811 335.116364,320.512848 
	C326.740082,331.237122 316.482574,339.255280 304.075867,344.981171 
	C282.256836,355.050934 262.271698,368.398376 241.804626,380.874725 
	C233.426697,385.981781 225.406326,391.707733 216.444946,395.834320 
	C213.554245,397.165466 211.706894,399.197144 211.286316,402.600616 
	C209.148468,419.901550 204.691696,436.959442 205.965195,454.614838 
	C206.073334,456.114105 205.959671,457.830627 204.314163,458.478577 
	C202.416489,459.225800 201.056854,457.872437 200.137970,456.504089 
	C196.593018,451.225220 195.614883,445.127411 195.055740,438.979218 
	C194.770004,435.837158 194.948257,432.652893 194.920288,428.989868 
z"/>
<path fill="#000000" opacity="1.000000" stroke="none" 
	d="
M706.888489,567.995911 
	C706.960571,550.190796 708.444336,532.893860 706.893738,515.576050 
	C704.712646,491.216370 704.277405,466.724152 701.229492,442.424194 
	C697.648621,413.875854 694.254456,385.303986 690.802368,356.739563 
	C689.705444,347.662476 689.031860,347.488007 680.020508,346.916687 
	C666.803528,346.078705 654.214783,349.216827 641.595093,352.111969 
	C635.339111,353.547180 630.247009,352.444916 625.323486,348.458435 
	C618.485474,342.921783 612.005859,336.883148 604.109924,332.735443 
	C602.350708,331.811310 600.771606,330.175720 601.103210,327.932495 
	C601.453857,325.560547 603.249390,324.267487 605.526794,323.725006 
	C615.388855,321.375793 625.200073,318.779572 635.457642,318.719940 
	C650.941956,318.629974 666.436035,318.113190 681.862244,320.006042 
	C699.519714,322.172699 716.819885,325.656311 734.055481,330.407593 
	C744.696655,333.340973 750.567505,339.280365 755.407898,347.894531 
	C756.237793,349.371307 757.247498,350.824799 756.295471,352.527771 
	C755.101379,354.663696 753.156982,353.811829 751.386597,353.514832 
	C741.709412,351.891693 732.035583,350.248230 722.352295,348.661987 
	C716.851379,347.760925 715.849854,348.758209 716.523743,354.459198 
	C718.886230,374.445465 721.481689,394.406738 723.590576,414.419464 
	C725.037048,428.146118 724.768433,441.982025 726.033447,455.764801 
	C730.813232,507.843170 732.907349,560.053101 732.276367,612.363586 
	C732.221680,616.901001 730.826843,620.302673 727.253601,623.152344 
	C721.920227,627.405823 716.869019,632.011475 711.634094,636.391113 
	C710.033875,637.729919 708.372375,639.745300 705.971619,638.226562 
	C703.859558,636.890686 704.065491,634.538452 704.160156,632.339966 
	C705.076721,611.058594 705.979614,589.776550 706.888489,567.995911 
z"/>
<path fill="#000000" opacity="1.000000" stroke="none" 
	d="
M215.729492,457.971924 
	C216.110931,448.162140 216.448105,438.845001 216.890961,429.532867 
	C217.185577,423.338135 219.631393,418.840332 225.351929,415.349548 
	C235.119354,409.389282 245.463913,405.066040 256.193726,401.352142 
	C263.781158,398.725983 271.558075,398.037964 279.368896,398.905182 
	C288.079529,399.872345 293.683380,406.286255 299.214691,412.196075 
	C301.310242,414.435059 298.679749,416.989014 294.634399,416.702515 
	C277.512482,415.489899 261.246033,419.026581 245.386749,425.251007 
	C240.593658,427.132202 238.798218,430.072632 239.095596,435.149078 
	C239.640808,444.457001 239.703644,453.792358 240.034485,463.113922 
	C240.201508,467.819977 241.529510,468.707703 245.469498,466.583771 
	C257.889099,459.888763 271.538971,457.832642 285.218719,455.883118 
	C287.666626,455.534271 290.248596,455.867401 290.761230,458.788025 
	C291.341888,462.095917 288.702271,463.023621 286.126678,463.450684 
	C269.139191,466.267365 255.761124,475.507599 243.629379,487.067474 
	C241.170670,489.410278 240.124527,491.973022 240.059036,495.423126 
	C239.697144,514.490967 242.600479,533.190308 245.509811,551.950684 
	C246.961273,561.310364 247.935257,570.716187 250.226318,579.950256 
	C254.991425,599.155884 262.078217,617.302979 273.094543,633.875122 
	C276.600067,639.148499 279.978241,644.464233 284.144104,649.252808 
	C285.441925,650.744690 287.082397,652.652710 285.518951,654.566223 
	C283.620087,656.890198 281.522705,654.849976 279.742432,653.880371 
	C272.658813,650.022339 266.538116,644.865051 260.861725,639.205383 
	C253.076294,631.442810 245.694992,623.336243 238.976913,614.582825 
	C232.763474,606.487000 229.682312,597.558960 228.729858,587.489685 
	C227.853867,578.229004 226.252380,569.027893 224.740799,559.838379 
	C222.632370,547.020386 221.169128,534.135071 220.336304,521.180481 
	C218.991440,500.261505 216.395508,479.434937 215.729492,457.971924 
z"/>
<path fill="#000000" opacity="1.000000" stroke="none" 
	d="
M703.209839,649.230225 
	C706.338501,647.581787 709.143433,646.129456 711.903442,644.596313 
	C713.939087,643.465454 716.017700,642.759216 717.772644,644.813782 
	C719.403198,646.722717 718.987244,648.881836 717.661560,650.823608 
	C715.200500,654.428101 712.117859,657.461426 708.689453,660.135864 
	C690.942139,673.979065 671.182556,680.204224 648.541687,676.810303 
	C641.223755,675.713318 634.214905,674.013184 627.444458,671.184143 
	C625.772156,670.485413 624.203003,669.482117 622.698364,668.454773 
	C621.006653,667.299805 619.404297,665.831604 620.174377,663.529663 
	C620.914185,661.318115 623.070374,661.645813 624.859863,661.587830 
	C633.498413,661.308044 642.123474,661.825623 650.790405,661.307129 
	C668.864075,660.226013 686.442200,657.459229 703.209839,649.230225 
z"/>
<path fill="#000000" opacity="1.000000" stroke="none" 
	d="
M602.047485,671.781128 
	C598.640442,677.899841 592.396912,678.435120 587.005066,680.103333 
	C568.784973,685.740662 550.295044,685.052612 531.731934,681.808044 
	C522.879517,680.260864 514.055115,678.708496 505.717255,675.200745 
	C504.195801,674.560608 502.579193,673.965759 501.301178,672.971252 
	C499.460236,671.538818 499.476440,669.495361 500.557251,667.565308 
	C501.523712,665.839478 502.842804,664.956787 505.080719,665.556946 
	C530.946594,672.493225 557.049316,674.151672 583.471191,669.046753 
	C586.903442,668.383545 590.335205,667.829773 593.636047,666.648438 
	C598.748596,664.818542 600.345703,665.719421 602.047485,671.781128 
z"/>
</svg>