<svg width="141" height="158" viewBox="0 0 141 158" fill="none" xmlns="http://www.w3.org/2000/svg">
<path d="M0.970967 74.7901C1.00939 71.7534 1.47312 68.84 1.98414 65.9264C2.70948 61.791 3.88201 57.7766 5.43363 53.8811C7.74127 48.0875 10.8052 42.6931 14.6596 37.7379C17.3378 34.2948 20.297 31.1068 23.5916 28.227C28.768 23.7023 34.4889 19.9873 40.8136 17.1745C44.6817 15.4543 48.6737 14.0866 52.7906 13.0809C54.7941 12.5916 56.838 12.2879 58.8762 11.9509C62.1707 11.4062 65.4895 11.1806 68.8084 11.1776C71.3375 11.1754 73.8848 11.1956 76.4088 11.5567C78.1659 11.8082 79.9335 11.9782 81.6861 12.2795C83.3874 12.572 85.0744 12.9245 86.7388 13.3585C90.2281 14.2683 93.6243 15.4438 96.9333 16.8746C101.506 18.8521 105.795 21.3039 109.817 24.2001C115.129 28.0259 119.79 32.5116 123.766 37.6728C126.503 41.227 128.876 44.9967 130.858 49.0118C132.813 52.972 134.323 57.0775 135.468 61.3288C136.283 64.3578 136.775 67.4297 137.198 70.5296C137.525 72.9326 137.667 75.3471 137.69 77.7486C137.715 80.2794 137.589 82.8267 137.257 85.3571C137.015 87.2113 136.802 89.0706 136.467 90.9094C136.103 92.9026 135.601 94.8694 135.035 96.8185C133.699 101.425 131.837 105.823 129.536 110.042C126.741 115.164 123.316 119.848 119.264 124.087C114.078 129.513 108.16 134.011 101.466 137.506C96.9738 139.852 92.2788 141.698 87.3449 142.978C84.179 143.8 80.9811 144.41 77.7408 144.82C72.9662 145.425 68.169 145.34 63.3819 145.075C60.4337 144.911 57.5097 144.426 54.621 143.807C46.2211 142.006 38.4528 138.753 31.2894 134.078C25.9705 130.607 21.287 126.442 17.1342 121.709C13.3759 117.425 10.2704 112.706 7.72661 107.626C6.11846 104.415 4.78902 101.094 3.72503 97.6861C2.32777 93.211 1.43011 88.608 1.06638 83.9461C0.831431 80.9347 0.570838 77.8943 0.970967 74.7901ZM61.347 16.6958C59.6128 16.7777 57.9213 17.1572 56.2404 17.5211C52.6675 18.2946 49.161 19.2963 45.7622 20.6594C40.1528 22.9091 34.9419 25.824 30.1857 29.5025C25.8238 32.876 21.9779 36.744 18.6478 41.1184C15.7651 44.9048 13.3265 48.9384 11.3825 53.2514C9.18384 58.1294 7.61097 63.2032 6.74927 68.4773C6.31448 71.1384 6.05721 73.8235 5.95099 76.5117C5.79445 80.4732 6.19315 84.4069 6.81087 88.323C7.3448 91.708 8.21682 95.0127 9.35223 98.2382C11.3705 103.972 14.1617 109.323 17.7688 114.274C21.145 118.908 25.066 123.023 29.5802 126.585C34.6532 130.588 40.2365 133.752 46.3075 136.076C49.3798 137.252 52.5329 138.157 55.7518 138.863C57.8468 139.323 59.9588 139.638 62.089 139.878C64.5892 140.159 67.1066 140.424 69.6083 140.339C73.4444 140.209 77.2797 139.955 81.0658 139.182C84.2479 138.532 87.3982 137.775 90.4439 136.687C95.9518 134.721 101.123 132.093 105.908 128.75C111.748 124.671 116.733 119.763 120.881 114.032C123.864 109.909 126.275 105.481 128.182 100.788C129.297 98.0443 130.185 95.2184 130.857 92.3478C131.399 90.0309 131.865 87.6906 132.085 85.3007C132.327 82.6637 132.606 80.0322 132.508 77.3862C132.371 73.7197 132.109 70.0663 131.317 66.4589C130.955 64.8118 130.664 63.1435 130.19 61.5273C128.975 57.3775 127.362 53.3786 125.32 49.5432C122.82 44.8457 119.754 40.5409 116.134 36.6181C113.314 33.5624 110.204 30.8193 106.818 28.3652C102.475 25.2176 97.8095 22.6581 92.8048 20.6854C89.0591 19.2089 85.1935 18.1503 81.2388 17.3434C77.969 16.6762 74.6653 16.4271 71.3518 16.21C70.362 16.1451 69.3731 16.0485 68.3703 16.1404C66.0796 16.3503 63.7682 16.3171 61.347 16.6958Z" fill="white"/>
<path d="M67.2912 90.558C67.5277 93.8322 67.6894 97.0391 68.2397 100.207C68.3299 100.726 68.2766 101.229 68.286 101.739C68.2922 102.077 68.1187 102.258 67.799 102.107C67.3856 101.911 66.9446 101.87 66.5119 101.781C65.5884 101.59 65.1743 101.002 65.019 100.123C64.6706 98.1502 64.1848 96.197 63.9243 94.2146C63.5496 91.3633 63.1365 88.5164 62.7757 85.6629C62.2909 81.8285 62.264 77.9762 62.0882 74.1309C61.9615 71.3588 62.0333 68.5779 62.0245 65.8009C62.0148 62.6905 61.6575 59.594 61.654 56.4821C61.6531 55.6906 61.9183 55.0961 62.4689 54.5662C63.5338 53.5413 64.5836 52.5014 65.6502 51.4782C65.9238 51.2158 66.2088 50.8319 66.6468 51.0165C67.1056 51.2099 66.9559 51.6835 66.9389 52.0503C66.7624 55.8783 66.8241 59.7088 66.8045 63.5383C66.7988 64.6421 66.8919 65.7461 66.9265 66.8505C66.9449 67.437 67.2122 67.5935 67.7924 67.4773C71.4688 66.741 75.1694 66.2149 78.938 66.2963C79.9108 66.3174 80.8646 66.4774 81.8259 66.5844C82.8344 66.6966 83.0272 66.5169 83.0736 65.5398C83.2315 62.2171 82.7428 58.9226 82.6411 55.6113C82.5993 54.2501 82.7017 52.8877 82.5583 51.5265C82.4974 50.948 82.8837 50.7389 83.4139 51.0414C83.7499 51.2331 84.0597 51.4808 84.3481 51.7391C85.2376 52.5358 86.0916 53.3714 86.9973 54.1495C87.6788 54.7349 88.0125 55.4452 88.0119 56.3143C88.0065 65.0319 88.093 73.751 87.949 82.4664C87.8761 86.879 87.4124 91.287 87.0679 95.6927C86.9481 97.2242 86.6671 98.7444 86.4376 100.267C86.2878 101.26 84.8698 102.089 83.8698 101.796C83.2584 101.617 83.1785 101.149 83.2281 100.63C83.3793 99.0433 83.5389 97.4577 83.5542 95.8629C83.5646 94.7829 83.5821 93.7025 83.5627 92.6228C83.5386 91.285 83.7062 89.9529 83.7013 88.6201C83.6849 84.2565 83.6385 79.8925 83.5422 75.5299C83.5072 73.9415 83.1631 72.3663 83.2177 70.7672C83.2328 70.325 82.9375 70.1304 82.5653 70.0084C80.4705 69.3222 78.3136 68.8958 76.1214 68.707C73.509 68.4821 70.8874 68.6178 68.2706 68.712C67.1497 68.7524 66.9412 69 66.9669 70.0655C67.0213 72.3232 67.0155 74.5813 67.0253 76.8394C67.0452 81.3875 67.1944 85.9351 67.2912 90.558Z" fill="white"/>
<path d="M56.8847 79.5642C57.0201 76.6076 56.4534 73.7535 56.5016 70.8738C56.5119 70.2553 56.1773 70.0641 55.6083 70.0917C53.0724 70.2146 50.521 70.159 48.0254 70.7392C47.6727 70.8213 47.2436 70.9872 47.0413 70.5679C46.8162 70.1016 47.2619 69.8325 47.5764 69.6696C48.4776 69.2029 49.4088 68.7882 50.3453 68.392C52.486 67.4864 54.7375 66.8857 56.9346 66.1351C57.6123 65.9036 58.3441 65.9787 59.0409 66.0506C59.6774 66.1164 59.8696 66.6348 59.8478 67.1947C59.8059 68.2723 59.7249 69.3483 59.6691 70.4254C59.484 73.9961 59.5023 77.5583 59.7881 81.1306C59.9762 83.4827 59.7794 85.8619 59.8815 88.2237C60.0113 91.2236 60.2712 94.218 60.4698 97.2152C60.5038 97.7279 60.4913 98.244 60.5357 98.7557C60.6296 99.8372 60.0649 100.502 59.1367 100.944C57.999 101.484 56.8119 101.899 55.56 102.075C52.689 102.478 49.8246 102.476 46.967 101.904C45.8131 101.674 45.0526 101.117 44.6425 99.9915C43.5825 97.0825 42.7772 94.1154 42.1381 91.0895C41.1887 86.594 40.7739 82.0443 40.7321 77.4769C40.7007 74.0434 40.8279 70.5988 41.2955 67.1761C41.5426 65.3674 41.852 63.5766 42.2538 61.7979C42.2807 61.6786 42.3446 61.5538 42.1534 61.3748C41.4934 62.2623 41.0585 63.2309 40.8517 64.2814C40.4646 66.2471 40.073 68.2147 39.7866 70.1959C39.3596 73.1495 39.2311 76.1247 39.2296 79.1103C39.2279 82.3858 39.6843 85.6089 40.107 88.8462C40.5016 91.868 41.2397 94.7993 42.0953 97.7122C42.3995 98.7481 42.7769 99.7634 43.0775 100.8C43.2154 101.276 43.4454 101.847 42.7677 102.139C41.9882 102.475 40.8124 102.151 40.5636 101.505C39.9624 99.9433 39.3211 98.3877 38.8606 96.7842C37.8004 93.0926 37.2034 89.3113 36.7865 85.4998C36.3185 81.2206 36.2158 76.9259 36.4424 72.6392C36.5883 69.8783 36.8619 67.1074 37.4546 64.3898C37.5967 63.7385 37.4841 63.2409 36.9842 62.7957C36.7753 62.6097 36.6043 62.3712 36.458 62.1318C36.1571 61.6395 36.284 61.2393 36.8067 60.9857C37.9868 60.413 39.2149 59.9847 40.5309 59.8271C40.8941 59.7836 41.2589 59.736 41.6153 59.6573C42.6367 59.4316 42.8229 59.5673 42.8268 60.6796C44.5639 58.9596 46.7084 57.9976 48.8574 57.0721C50.6535 56.2986 52.4977 55.6285 54.3395 54.9628C55.4227 54.5713 57.9972 55.7453 58.5367 56.8037C58.6984 57.1209 58.6632 57.3634 58.2794 57.4473C57.9488 57.5197 57.6103 57.5734 57.2725 57.596C54.2063 57.8012 51.292 58.5266 48.5253 59.8725C46.4129 60.9001 45.2355 62.4076 44.9208 64.781C44.5838 67.3229 44.3158 69.8724 43.9921 72.4152C43.7153 74.5892 43.7491 76.7787 43.9737 78.9564C44.216 81.3062 44.305 83.667 44.5886 86.0148C44.9867 89.3098 45.7449 92.5371 46.3926 95.7849C46.6127 96.8882 47.0185 97.9546 47.2936 99.049C47.4221 99.5605 47.7841 99.6816 48.2126 99.7361C50.1851 99.9866 52.1578 100.239 54.1559 100.106C55.3345 100.028 56.3865 99.5761 57.413 99.055C57.8303 98.8432 57.9749 98.4635 57.9418 98.0156C57.756 95.506 57.7984 92.9852 57.5216 90.4784C57.3838 89.2296 57.379 87.9669 57.3065 86.7109C57.1704 84.3528 57.0288 81.9949 56.8847 79.5642Z" fill="white"/>
<path d="M106.41 113.752C100.738 115.814 94.8714 116.954 89.0845 118.381C87.9989 118.648 86.8731 118.779 85.8631 119.321C85.3835 119.578 84.8456 119.27 84.3157 119.38C81.703 119.919 79.0905 120.473 76.457 120.896C74.2381 121.253 72.0501 121.803 69.7899 121.925C68.4667 121.996 67.4807 121.52 66.6596 120.515C63.0722 116.127 59.455 111.761 55.856 107.382C54.8426 106.148 55.0125 105.204 56.3149 104.291C57.2183 103.657 58.2524 103.276 59.2089 102.748C59.5154 102.578 59.8246 102.584 60.0393 102.902C60.282 103.262 60.1014 103.548 59.8101 103.767C59.1441 104.266 58.4715 104.758 57.7859 105.231C57.2548 105.597 57.2363 105.975 57.6381 106.454C59.0387 108.121 60.683 109.563 62.1394 111.178C62.415 111.484 62.7164 111.64 63.0708 111.284C64.5607 109.786 66.5631 109.426 68.5105 109.138C70.7046 108.813 72.9411 108.726 75.1634 108.632C77.1264 108.549 79.1048 108.602 81.0179 109.089C82.4545 109.454 83.7598 110.07 84.4881 111.501C85.025 112.555 85.7867 113.49 86.2623 114.585C86.5477 115.242 87.1487 115.156 87.6874 115.038C88.9133 114.772 90.1352 114.482 91.3473 114.16C95.4379 113.075 99.5693 112.14 103.618 110.897C104.746 110.55 105.527 109.988 106.071 108.942C107.924 105.383 109.335 101.66 110.574 97.8612C111.709 94.3781 112.484 90.8108 113.028 87.2103C113.457 84.3776 113.805 81.4813 112.649 78.6912C112.009 77.1463 111.323 75.6197 110.676 74.0776C109.594 71.5002 109.373 68.8001 109.559 66.0542C109.597 65.4957 109.766 64.9447 109.887 64.3931C109.944 64.1352 110.045 63.875 110.374 63.8735C110.722 63.872 110.903 64.1287 110.949 64.4128C111.046 65.0199 111.112 65.6342 111.149 66.2479C111.262 68.0984 111.45 69.9317 112.113 71.6899C112.707 73.2626 113.567 74.7074 114.333 76.1959C115.571 78.5978 116.267 81.0975 116.244 83.8218C116.223 86.3774 115.932 88.8789 115.513 91.3992C115.121 93.758 114.729 96.1118 114.117 98.4205C113.332 101.378 112.379 104.287 111.11 107.086C110.28 108.915 109.518 110.775 108.26 112.388C107.774 113.012 107.105 113.337 106.41 113.752ZM64.6327 111.383C63.2288 112.107 63.1954 112.297 64.2416 113.428C65.6128 114.912 67.0259 116.361 68.3274 117.901C69.0895 118.803 69.9295 118.961 71.0171 118.722C73.6452 118.145 76.2824 117.607 78.9209 117.077C80.1249 116.835 81.2765 116.385 82.5153 116.273C83.1096 116.219 83.2006 115.782 82.9994 115.295C82.6649 114.486 82.3033 113.688 81.9657 112.881C81.7404 112.342 81.3061 112.012 80.7936 111.801C78.8167 110.985 76.7209 110.642 74.6034 110.531C72.6702 110.431 70.7274 110.51 68.7889 110.502C67.3776 110.496 66.047 110.858 64.6327 111.383Z" fill="white"/>
<path d="M20.1874 66.1919C20.2287 64.8055 20.3249 63.4946 20.2946 62.1866C20.2644 60.88 20.9032 59.9241 21.9097 59.2748C25.2132 57.1439 28.4472 54.9153 31.7114 52.7291C32.5302 52.1808 33.3952 51.6749 34.2963 51.2734C37.0857 50.0304 39.2142 48.0093 41.2141 45.8135C42.069 44.875 42.9652 43.9724 43.8499 43.0603C44.2741 42.623 44.7355 42.3217 45.419 42.3293C49.1385 42.3708 52.8588 42.3524 56.5782 42.3988C57.6852 42.4126 58.6944 42.18 59.6795 41.7085C63.6789 39.7941 67.694 37.9111 71.686 35.9819C72.5441 35.5672 73.2491 35.5624 74.0982 36.0661C77.1006 37.8472 80.15 39.552 83.1813 41.2862C83.7825 41.6302 84.3858 41.7648 85.1197 41.6948C88.9206 41.3321 92.7296 41.0519 96.5338 40.7209C97.5308 40.6342 98.4569 40.7658 99.339 41.2474C102.167 42.7912 104.852 44.5288 107.043 46.8965C108.274 48.2266 109.503 49.5716 110.313 51.2145C110.392 51.3759 110.492 51.5293 110.556 51.6964C110.685 52.0392 110.831 52.4281 110.426 52.6644C110.063 52.8756 109.856 52.5118 109.648 52.3108C108.417 51.1212 107.383 49.7502 106.056 48.6457C103.734 46.7119 101.357 44.8655 98.4971 43.7348C97.7185 43.4269 96.9359 43.2506 96.055 43.3531C92.2617 43.7946 88.4489 44.0842 84.6855 44.753C83.4466 44.9732 82.508 44.3551 81.549 43.7828C78.8877 42.1944 76.2301 40.5999 73.5867 38.9831C72.9923 38.6195 72.511 38.6889 71.9178 39.0073C68.081 41.0666 64.222 43.0857 60.3774 45.1311C59.5693 45.561 58.7266 45.7348 57.8112 45.7148C54.6152 45.6449 51.4024 45.7707 48.2285 45.4801C46.442 45.3165 45.2999 45.8057 44.296 47.1232C43.6709 47.9435 42.887 48.646 42.2434 49.4543C40.9256 51.109 39.3119 52.3462 37.36 53.2296C33.9274 54.7834 30.7833 56.8428 27.5633 58.7679C26.2453 59.5559 24.9835 60.4394 23.5737 61.0761C23.1189 61.2815 22.8283 61.595 22.7621 62.1201C22.4258 64.7896 21.7247 67.4216 21.925 70.1458C21.942 70.3771 21.9241 70.642 21.6653 70.7419C21.3667 70.8572 21.1528 70.6484 21.0082 70.4373C20.4505 69.6228 20.2967 68.6819 20.2087 67.7332C20.1637 67.2484 20.1918 66.7571 20.1874 66.1919Z" fill="white"/>
<path d="M100.731 87.6401C100.743 84.8928 100.976 82.2239 100.732 79.5519C100.389 75.7932 100.321 72.0142 99.8411 68.2647C99.2778 63.8598 98.7438 59.4513 98.2007 55.0439C98.0281 53.6433 97.9222 53.6164 96.5045 53.5282C94.4252 53.3989 92.4447 53.8831 90.4593 54.3299C89.4751 54.5513 88.674 54.3812 87.8994 53.7661C86.8237 52.9118 85.8043 51.9801 84.5621 51.3401C84.2853 51.1975 84.0369 50.9452 84.089 50.599C84.1442 50.2331 84.4267 50.0335 84.785 49.9498C86.3365 49.5874 87.88 49.1868 89.4938 49.1776C91.9298 49.1637 94.3674 49.0839 96.7942 49.376C99.5722 49.7103 102.294 50.2478 105.005 50.9809C106.679 51.4335 107.603 52.35 108.365 53.6791C108.495 53.907 108.654 54.1312 108.504 54.394C108.316 54.7236 108.01 54.5921 107.732 54.5463C106.21 54.2959 104.688 54.0423 103.164 53.7975C102.299 53.6585 102.141 53.8124 102.247 54.692C102.619 57.7758 103.027 60.8558 103.359 63.9437C103.587 66.0617 103.544 68.1965 103.743 70.3232C104.495 78.3587 104.825 86.4145 104.726 94.4859C104.717 95.186 104.497 95.7108 103.935 96.1505C103.096 96.8068 102.302 97.5175 101.478 98.1932C101.226 98.3998 100.965 98.7108 100.587 98.4764C100.255 98.2703 100.287 97.9074 100.302 97.5682C100.446 94.2845 100.588 91.0008 100.731 87.6401Z" fill="white"/>
<path d="M23.4611 70.6637C23.5211 69.1501 23.5742 67.7124 23.6438 66.2756C23.6902 65.3198 24.075 64.6258 24.9749 64.0872C26.5116 63.1675 28.139 62.5005 29.827 61.9274C31.0207 61.5222 32.2442 61.416 33.473 61.5499C34.8434 61.6991 35.725 62.6887 36.5952 63.6006C36.9249 63.9461 36.511 64.3401 35.8746 64.2959C33.181 64.1088 30.6219 64.6545 28.1269 65.6149C27.3728 65.9052 27.0903 66.3589 27.1371 67.1422C27.2229 68.5784 27.2328 70.0188 27.2848 71.4571C27.3111 72.1832 27.52 72.3202 28.1399 71.9925C30.0938 70.9594 32.2412 70.6422 34.3933 70.3414C34.7784 70.2875 35.1846 70.339 35.2653 70.7896C35.3566 71.3 34.9414 71.4431 34.5362 71.509C31.8637 71.9436 29.759 73.3694 27.8504 75.153C27.4636 75.5145 27.299 75.9099 27.2887 76.4423C27.2318 79.3844 27.6885 82.2696 28.1462 85.1643C28.3746 86.6085 28.5278 88.0598 28.8882 89.4845C29.6379 92.4479 30.7528 95.248 32.4859 97.805C33.0374 98.6187 33.5689 99.4389 34.2243 100.178C34.4284 100.408 34.6865 100.702 34.4406 100.998C34.1418 101.356 33.8119 101.041 33.5318 100.892C32.4174 100.296 31.4545 99.5007 30.5614 98.6274C29.3366 97.4297 28.1754 96.1789 27.1185 94.8282C26.1409 93.5791 25.6562 92.2015 25.5064 90.6479C25.3686 89.219 25.1166 87.7993 24.8788 86.3814C24.5471 84.4036 24.3169 82.4154 24.1859 80.4166C23.9743 77.1888 23.5659 73.9753 23.4611 70.6637Z" fill="white"/>
<path d="M100.153 100.174C100.645 99.9198 101.086 99.6957 101.52 99.4591C101.841 99.2846 102.168 99.1757 102.444 99.4927C102.7 99.7872 102.635 100.12 102.426 100.42C102.039 100.976 101.554 101.444 101.015 101.857C98.2227 103.993 95.1141 104.953 91.5522 104.43C90.4009 104.26 89.2982 103.998 88.2331 103.562C87.97 103.454 87.7231 103.299 87.4864 103.14C87.2203 102.962 86.9682 102.736 87.0893 102.38C87.2057 102.039 87.545 102.09 87.8265 102.081C89.1855 102.038 90.5424 102.118 91.9059 102.038C94.7493 101.871 97.5148 101.444 100.153 100.174Z" fill="white"/>
<path d="M84.2376 103.654C83.7016 104.598 82.7193 104.68 81.8711 104.938C79.0046 105.808 76.0958 105.701 73.1754 105.201C71.7827 104.962 70.3944 104.723 69.0827 104.181C68.8433 104.083 68.589 103.991 68.3879 103.837C68.0983 103.616 68.1008 103.301 68.2709 103.003C68.4229 102.737 68.6305 102.601 68.9825 102.693C73.0518 103.764 77.1583 104.019 81.3151 103.232C81.8551 103.129 82.395 103.044 82.9143 102.862C83.7186 102.579 83.9698 102.718 84.2376 103.654Z" fill="white"/>
</svg>
