<svg width="250" height="158" viewBox="0 0 250 158" fill="none" xmlns="http://www.w3.org/2000/svg">
<path d="M233.577 110.554C233.638 111.992 233.7 113.431 233.762 114.87C233.844 116.309 233.905 117.747 233.947 119.186V119.34L233.854 119.248V119.032C233.751 117.182 233.649 115.363 233.546 113.575C233.464 111.766 233.422 109.937 233.422 108.087V104.604C233.422 104.049 233.422 103.504 233.422 102.97C233.443 102.415 233.464 101.86 233.484 101.305C233.505 100.668 233.556 100.051 233.638 99.4552C233.72 98.8386 233.762 98.2015 233.762 97.5438H233.885C234.029 97.5438 234.152 97.5335 234.255 97.5129C234.358 97.4924 234.44 97.4821 234.501 97.4821C234.707 97.4821 234.83 97.6157 234.871 97.8829C234.913 98.1501 234.933 98.3556 234.933 98.4995L234.902 99.1469H235.272C235.293 99.0236 235.324 98.8283 235.365 98.5611C235.426 98.2734 235.509 97.9857 235.611 97.6979C235.714 97.4102 235.827 97.1635 235.95 96.958C236.094 96.7319 236.259 96.6189 236.444 96.6189C236.649 96.6189 236.803 96.8039 236.906 97.1738C237.029 97.5438 237.122 97.9857 237.184 98.4995C237.245 98.9928 237.276 99.5066 237.276 100.041C237.297 100.555 237.307 100.966 237.307 101.274V101.644C237.307 104.008 237.327 106.371 237.369 108.735C237.41 111.098 237.43 113.462 237.43 115.826C237.43 116.011 237.42 116.206 237.399 116.411C237.399 116.596 237.399 116.781 237.399 116.966C237.399 117.069 237.399 117.161 237.399 117.244C237.42 117.326 237.43 117.418 237.43 117.521H237.739C237.923 117.521 238.108 117.531 238.293 117.552C238.478 117.552 238.663 117.552 238.848 117.552C240.143 117.552 241.417 117.49 242.671 117.367C243.945 117.223 245.23 117.151 246.525 117.151H246.648C246.854 117.151 247.1 117.182 247.388 117.244C247.676 117.285 247.82 117.429 247.82 117.675V117.737C246.73 117.737 245.662 117.778 244.613 117.86C243.565 117.922 242.497 118.004 241.407 118.107C242.209 118.066 243 118.014 243.781 117.953C244.583 117.891 245.384 117.86 246.186 117.86C246.453 117.86 246.71 117.871 246.956 117.891C247.203 117.891 247.46 117.901 247.727 117.922L247.604 118.292C247.727 118.312 247.892 118.343 248.097 118.384C248.303 118.405 248.498 118.456 248.683 118.539C248.888 118.621 249.063 118.723 249.207 118.847C249.351 118.95 249.423 119.083 249.423 119.248C249.423 119.535 249.289 119.731 249.022 119.833C248.755 119.957 248.508 120.07 248.282 120.172C247.974 120.07 247.645 120.008 247.296 119.987C246.967 119.987 246.638 119.987 246.309 119.987C245.59 119.987 244.881 120.018 244.182 120.08C243.524 120.142 242.856 120.203 242.178 120.265C242.671 120.244 243.144 120.224 243.596 120.203C244.11 120.183 244.624 120.172 245.138 120.172C245.59 120.172 246.032 120.183 246.463 120.203C246.915 120.224 247.368 120.275 247.82 120.357C247.45 120.522 246.987 120.645 246.432 120.727C245.898 120.81 245.333 120.871 244.737 120.912C244.161 120.953 243.586 120.974 243.01 120.974C242.435 120.995 241.931 121.015 241.5 121.036L241.222 120.727C240.77 120.83 240.318 120.892 239.866 120.912C239.414 120.953 238.951 120.974 238.478 120.974C237.985 120.974 237.492 120.953 236.999 120.912C236.505 120.871 236.022 120.81 235.55 120.727C235.324 120.481 235.097 120.234 234.871 119.987C234.645 119.761 234.399 119.535 234.132 119.309C234.132 117.829 234.09 116.37 234.008 114.931C233.947 113.493 233.864 112.034 233.762 110.554H233.577ZM240.143 120.419C239.65 120.44 239.136 120.45 238.602 120.45C237.965 120.45 237.369 120.429 236.814 120.388C236.259 120.347 235.868 120.275 235.642 120.172L234.717 119.278L234.44 115.641V116.319C234.44 116.792 234.471 117.264 234.532 117.737C234.594 118.21 234.625 118.682 234.625 119.155V119.34C234.789 119.504 234.943 119.669 235.087 119.833C235.252 119.998 235.406 120.172 235.55 120.357H235.765C236.218 120.357 236.66 120.378 237.091 120.419C237.543 120.481 237.995 120.512 238.448 120.512C238.92 120.512 239.383 120.491 239.835 120.45C239.999 120.45 240.174 120.44 240.359 120.419H240.143ZM237.523 118.261C237.625 118.282 237.728 118.302 237.831 118.323C237.954 118.323 238.078 118.323 238.201 118.323C238.735 118.323 239.27 118.312 239.804 118.292C240.338 118.271 240.873 118.21 241.407 118.107C240.75 118.148 240.102 118.169 239.465 118.169C238.828 118.169 238.18 118.179 237.523 118.199V118.261ZM235.457 120.943C235.807 121.046 236.166 121.108 236.536 121.128C236.927 121.169 237.327 121.19 237.739 121.19C237.985 121.19 238.222 121.18 238.448 121.159C238.653 121.159 238.848 121.159 239.033 121.159C238.91 121.18 238.766 121.19 238.602 121.19C238.437 121.21 238.273 121.221 238.108 121.221H237.492C237.245 121.221 236.988 121.21 236.721 121.19C236.475 121.169 236.228 121.149 235.981 121.128C235.755 121.108 235.591 121.077 235.488 121.036C235.426 120.974 235.324 120.861 235.18 120.697C235.036 120.553 234.882 120.399 234.717 120.234C234.553 120.07 234.399 119.905 234.255 119.741C234.132 119.597 234.06 119.504 234.039 119.463L235.457 120.943ZM236.721 118.138L236.043 118.014C236.166 118.056 236.351 118.138 236.598 118.261C236.844 118.364 237.029 118.425 237.153 118.446L237.06 118.107L236.721 118.138Z" fill="white"/>
<path d="M224.808 114.438L224.623 114.346C223.76 114.12 222.846 113.976 221.88 113.914C220.914 113.853 219.927 113.719 218.92 113.513C219.906 113.719 220.872 113.883 221.818 114.007C222.763 114.109 223.698 114.315 224.623 114.623C224.336 114.808 224.027 114.901 223.698 114.901C223.308 114.86 222.917 114.798 222.527 114.716C222.157 114.634 221.756 114.572 221.325 114.531C221.325 114.407 221.355 114.315 221.417 114.253C220.821 114.253 220.225 114.192 219.629 114.068C219.054 113.945 218.488 113.811 217.933 113.668C217.378 113.503 216.834 113.359 216.299 113.236C215.786 113.092 215.303 113.02 214.85 113.02C214.85 113.082 214.84 113.113 214.82 113.113C215.354 113.215 215.858 113.359 216.33 113.544C216.803 113.729 217.337 113.873 217.933 113.976C218.509 114.12 219.064 114.222 219.598 114.284C220.153 114.346 220.698 114.428 221.232 114.531C220.369 114.449 219.485 114.325 218.581 114.161C217.697 113.996 216.824 113.811 215.96 113.606L214.511 113.236C213.998 114.551 213.473 115.846 212.939 117.12C212.425 118.374 211.922 119.648 211.428 120.943C211.387 120.861 211.315 120.81 211.213 120.789C211.13 120.789 211.038 120.789 210.935 120.789C210.853 120.789 210.771 120.758 210.689 120.697C210.606 120.656 210.565 120.553 210.565 120.388C210.565 120.224 210.606 119.988 210.689 119.679C210.771 119.392 210.925 119.001 211.151 118.508C211.11 118.467 211.038 118.446 210.935 118.446C210.853 118.426 210.791 118.415 210.75 118.415C210.339 119.278 209.938 119.936 209.548 120.388C209.178 120.861 208.88 121.097 208.654 121.097C208.407 121.097 208.284 120.861 208.284 120.388C208.284 119.998 208.356 119.505 208.5 118.909C208.644 118.292 208.818 117.634 209.024 116.935C209.25 116.237 209.496 115.517 209.764 114.777C210.031 114.017 210.288 113.277 210.534 112.558C210.308 112.414 210.062 112.311 209.794 112.249C209.548 112.188 209.27 112.136 208.962 112.095C209.024 112.013 209.055 111.91 209.055 111.787C209.055 111.664 209.065 111.54 209.085 111.417C209.106 111.294 209.147 111.191 209.209 111.109C209.27 111.027 209.383 110.985 209.548 110.985C209.589 110.985 209.712 111.006 209.918 111.047V110.77C209.589 110.605 209.332 110.41 209.147 110.184C208.983 109.958 208.9 109.732 208.9 109.506C208.9 109.012 209.373 108.766 210.319 108.766C210.586 108.766 210.853 108.786 211.12 108.827C211.408 108.848 211.696 108.879 211.983 108.92L213.402 105.683C213.71 104.984 214.039 104.265 214.388 103.525C214.758 102.785 215.19 102.055 215.683 101.336C216.176 100.617 216.731 99.9383 217.348 99.3011C217.985 98.6434 218.714 98.0577 219.537 97.5439L219.999 97.3589C220.574 97.5028 221.037 97.6261 221.386 97.7288C221.756 97.811 222.054 97.8727 222.28 97.9138C222.486 97.996 222.65 98.0474 222.774 98.068H222.743L222.774 98.1604C222.774 98.181 222.763 98.2016 222.743 98.2221L223.113 98.8695C224.449 101.11 225.579 103.432 226.504 105.837C227.429 108.242 228.22 110.605 228.878 112.928C229.042 113.441 229.237 113.996 229.464 114.592C229.71 115.168 229.936 115.723 230.142 116.257C230.368 116.771 230.553 117.244 230.697 117.675C230.841 118.086 230.913 118.384 230.913 118.569C230.913 118.713 230.882 118.806 230.82 118.847C230.758 118.867 230.676 118.878 230.573 118.878C230.039 117.542 229.535 116.226 229.063 114.932C228.59 113.657 228.128 112.373 227.675 111.078C228.087 112.373 228.518 113.657 228.97 114.932C229.443 116.226 229.916 117.542 230.388 118.878H230.173C230.049 118.878 229.967 118.939 229.926 119.063C229.967 119.104 230.018 119.217 230.08 119.402C230.142 119.566 230.203 119.741 230.265 119.926C230.327 120.131 230.378 120.337 230.419 120.542C230.46 120.748 230.481 120.902 230.481 121.005C230.481 121.457 230.347 121.683 230.08 121.683C229.936 121.683 229.823 121.652 229.741 121.591C229.659 121.529 229.566 121.447 229.464 121.344L229.155 121.036C229.032 120.912 228.878 120.789 228.693 120.666L225.733 112.157C226.165 113.493 226.586 114.829 226.997 116.165C227.429 117.501 227.871 118.816 228.323 120.111C227.994 119.72 227.686 119.248 227.398 118.693C227.131 118.138 226.874 117.552 226.627 116.935C226.401 116.319 226.185 115.692 225.98 115.055C225.774 114.397 225.569 113.781 225.363 113.205C225.363 113.246 225.363 113.287 225.363 113.328C225.384 113.349 225.394 113.38 225.394 113.421C225.394 113.75 225.291 113.996 225.086 114.161L224.808 114.438ZM224.623 111.232C224.664 111.232 224.726 111.222 224.808 111.201C224.891 111.16 224.952 111.14 224.993 111.14C224.315 109.434 223.637 107.779 222.959 106.176C222.301 104.573 221.571 103.031 220.77 101.552L220.585 101.737L221.047 102.569C221.767 103.884 222.414 105.241 222.989 106.638C223.565 108.036 224.11 109.475 224.623 110.955C224.027 109.351 223.38 107.759 222.681 106.176C222.003 104.573 221.273 103.124 220.492 101.829L220.369 101.891C219.67 102.61 219.012 103.473 218.396 104.48C217.8 105.488 217.235 106.515 216.7 107.563L215.899 109.506L216.423 109.629C216.731 109.711 217.029 109.804 217.317 109.906C217.625 109.989 217.892 110.081 218.118 110.184C218.571 110.41 219.167 110.585 219.906 110.708C220.646 110.831 221.366 110.955 222.065 111.078C222.784 111.181 223.4 111.304 223.914 111.448C224.449 111.571 224.716 111.756 224.716 112.003L220.955 111.571C221.181 111.612 221.458 111.664 221.787 111.725C222.116 111.766 222.445 111.818 222.774 111.879C223.123 111.941 223.462 112.003 223.791 112.064C224.12 112.106 224.397 112.147 224.623 112.188C224.623 112.249 224.613 112.311 224.593 112.373C224.593 112.414 224.593 112.455 224.593 112.496C224.593 112.537 224.613 112.568 224.654 112.589C224.716 112.589 224.778 112.599 224.839 112.619C224.921 112.619 224.993 112.64 225.055 112.681C225.117 112.702 225.178 112.763 225.24 112.866L224.623 111.232ZM217.933 104.635C217.975 104.635 217.985 104.665 217.964 104.727C217.964 104.768 217.975 104.789 217.995 104.789C218.036 104.789 218.159 104.645 218.365 104.357C218.571 104.069 218.807 103.741 219.074 103.371C219.341 103.001 219.598 102.651 219.845 102.322C220.091 101.994 220.266 101.778 220.369 101.675L220.215 101.459C219.783 101.87 219.382 102.353 219.012 102.908C218.642 103.463 218.283 104.039 217.933 104.635ZM221.047 101.305C221.705 102.415 222.311 103.576 222.866 104.789C223.4 105.981 223.904 107.173 224.377 108.365C223.986 107.173 223.514 105.981 222.959 104.789C222.383 103.576 221.756 102.415 221.078 101.305H221.047ZM225.764 105.929C226.401 107.574 227.028 109.249 227.645 110.955C227.069 109.29 226.463 107.646 225.826 106.022C225.23 104.419 224.541 102.805 223.76 101.182C224.5 102.744 225.168 104.326 225.764 105.929ZM221.232 100.627C221.499 100.688 221.684 100.75 221.787 100.812C221.89 100.873 221.962 100.904 222.003 100.904L222.034 100.812C222.054 100.812 222.013 100.801 221.91 100.781C221.808 100.76 221.725 100.74 221.664 100.719L221.725 100.596L221.355 100.473L221.232 100.627ZM219.722 100.318L219.968 100.966L219.937 100.318C219.896 100.318 219.845 100.308 219.783 100.288C219.742 100.267 219.701 100.257 219.66 100.257L219.722 100.318ZM220.523 101.213L220.307 101.367L220.492 101.613L220.677 101.428L220.523 101.213ZM220.955 101.151H220.986L220.831 100.935V100.966L220.955 101.151Z" fill="white"/>
<path d="M194.617 113.267V113.914C194.617 114.264 194.617 114.613 194.617 114.963C194.637 115.291 194.689 115.6 194.771 115.887C194.668 116.894 194.586 117.902 194.524 118.909C194.483 119.916 194.462 120.923 194.462 121.93L193.784 121.961C193.681 121.961 193.599 121.889 193.538 121.745C193.496 121.622 193.455 121.457 193.414 121.252C193.394 121.067 193.373 120.861 193.353 120.635C193.353 120.409 193.353 120.204 193.353 120.019V119.402H193.044C193.044 119.525 193.013 119.792 192.952 120.204C192.89 120.615 192.808 121.046 192.705 121.498C192.623 121.95 192.51 122.351 192.366 122.701C192.222 123.071 192.058 123.256 191.873 123.256C191.729 123.256 191.606 123.112 191.503 122.824C191.4 122.557 191.318 122.249 191.256 121.899C191.195 121.55 191.143 121.211 191.102 120.882C191.061 120.573 191.04 120.368 191.04 120.265C190.855 118.457 190.763 116.648 190.763 114.839C190.763 113.01 190.681 111.191 190.516 109.382C190.455 108.766 190.362 108.17 190.239 107.594C190.116 106.998 189.982 106.402 189.838 105.806C189.715 105.21 189.602 104.614 189.499 104.018C189.417 103.422 189.376 102.795 189.376 102.138C189.376 101.213 189.612 100.493 190.085 99.9795C190.557 99.4451 191.143 99.0443 191.842 98.7772C192.561 98.51 193.332 98.3456 194.154 98.2839C194.976 98.2222 195.737 98.1914 196.436 98.1914C197.854 98.1914 199.241 98.2942 200.597 98.4997C201.975 98.7052 203.197 99.106 204.266 99.702C205.335 100.298 206.188 101.141 206.825 102.23C207.483 103.299 207.812 104.696 207.812 106.423C207.812 107.882 207.585 109.156 207.133 110.246C206.702 111.335 206.085 112.239 205.284 112.959C204.482 113.678 203.506 114.223 202.355 114.593C201.224 114.942 199.96 115.117 198.563 115.117C198.501 115.117 198.367 115.117 198.162 115.117C197.956 115.096 197.741 115.076 197.515 115.055C197.288 115.014 197.083 114.963 196.898 114.901C196.734 114.819 196.651 114.716 196.651 114.593L196.744 114.377C197.093 114.397 197.443 114.418 197.792 114.438C198.141 114.438 198.491 114.438 198.84 114.438C199.457 114.438 200.063 114.408 200.659 114.346C201.276 114.284 201.872 114.161 202.447 113.976C203.023 113.791 203.557 113.534 204.05 113.205C204.503 112.897 204.924 112.506 205.314 112.034C204.903 112.506 204.461 112.897 203.989 113.205C203.475 113.534 202.92 113.781 202.324 113.945C201.748 114.11 201.142 114.223 200.505 114.284C199.888 114.325 199.262 114.346 198.624 114.346C198.337 114.346 198.039 114.346 197.73 114.346C197.422 114.325 197.124 114.305 196.836 114.284L196.805 113.699C196.641 113.719 196.497 113.74 196.374 113.76C196.251 113.76 196.137 113.76 196.035 113.76C195.788 113.76 195.562 113.729 195.356 113.668C195.151 113.585 194.904 113.452 194.617 113.267ZM197.422 101.706C196.723 101.706 195.983 101.737 195.202 101.798C194.421 101.84 193.702 101.973 193.044 102.199L192.89 102.446C193.671 102.22 194.391 102.086 195.048 102.045C195.706 102.004 196.333 101.983 196.929 101.983H197.052C197.936 101.983 198.809 102.014 199.673 102.076C200.536 102.117 201.307 102.292 201.985 102.6C202.663 102.888 203.208 103.35 203.619 103.987C204.05 104.604 204.266 105.488 204.266 106.639C204.266 106.988 204.235 107.317 204.174 107.625C204.112 107.933 204.03 108.242 203.927 108.55C204.009 108.262 204.071 107.975 204.112 107.687C204.174 107.379 204.204 107.07 204.204 106.762C204.204 105.981 204.071 105.272 203.804 104.635C203.537 103.998 203.105 103.422 202.509 102.908L202.293 102.785C201.985 102.641 201.594 102.528 201.122 102.446C200.669 102.364 200.186 102.302 199.673 102.261C199.159 102.199 198.635 102.168 198.1 102.168C197.586 102.148 197.103 102.138 196.651 102.138H195.788C195.418 102.138 194.987 102.168 194.493 102.23C194.021 102.292 193.609 102.374 193.26 102.477C193.26 102.99 193.301 103.504 193.383 104.018C193.486 104.511 193.589 105.005 193.692 105.498L194.031 106.978C194.154 107.471 194.236 107.964 194.277 108.458L194.555 112.311C194.699 112.208 194.853 112.126 195.017 112.065C195.202 111.982 195.439 111.941 195.726 111.941H195.881C196.333 112.085 196.795 112.167 197.268 112.188C197.761 112.208 198.244 112.219 198.717 112.219C199.703 112.219 200.577 112.126 201.337 111.941C202.118 111.756 202.776 111.448 203.31 111.016C203.845 110.564 204.246 109.978 204.513 109.259C204.801 108.519 204.944 107.615 204.944 106.546C204.944 106.073 204.862 105.56 204.698 105.005C204.554 104.429 204.328 103.895 204.02 103.402C203.711 102.908 203.321 102.497 202.848 102.168C202.396 101.84 201.872 101.665 201.276 101.644C201.851 101.706 202.365 101.891 202.817 102.199C203.269 102.508 203.65 102.898 203.958 103.371C204.266 103.843 204.492 104.368 204.636 104.943C204.801 105.498 204.883 106.043 204.883 106.577C204.883 108.447 204.431 109.824 203.526 110.708C202.622 111.592 201.235 112.034 199.364 112.034C198.912 112.034 198.46 112.013 198.008 111.972L196.651 111.849C197.33 111.684 198.018 111.592 198.717 111.571C199.436 111.53 200.114 111.448 200.752 111.325C201.409 111.201 201.995 110.975 202.509 110.646C203.043 110.297 203.475 109.722 203.804 108.92L204.081 109.012C204.328 108.334 204.451 107.625 204.451 106.885C204.451 105.755 204.256 104.851 203.865 104.172C203.495 103.494 202.992 102.97 202.355 102.6C201.718 102.23 200.967 101.994 200.104 101.891C199.262 101.768 198.367 101.706 197.422 101.706ZM207.195 106.361C207.195 105.518 207.082 104.748 206.856 104.049C206.63 103.33 206.28 102.631 205.808 101.953C206.239 102.631 206.558 103.36 206.763 104.141C206.989 104.902 207.102 105.683 207.102 106.484C207.102 107.779 206.846 109.023 206.332 110.215C206.599 109.639 206.804 109.033 206.948 108.396C207.113 107.718 207.195 107.039 207.195 106.361ZM202.016 99.3937C202.303 99.4965 202.581 99.589 202.848 99.6712C203.136 99.7329 203.423 99.8254 203.711 99.9487C203.197 99.6815 202.632 99.4965 202.016 99.3937ZM204.944 100.874C204.862 100.709 204.677 100.534 204.389 100.349C204.122 100.185 203.906 100.062 203.742 99.9795C203.948 100.144 204.143 100.278 204.328 100.38C204.533 100.504 204.739 100.668 204.944 100.874Z" fill="white"/>
<path d="M183.728 109.444C182.926 109.156 182.094 108.971 181.231 108.889C180.409 108.786 179.566 108.694 178.703 108.612C179.484 108.735 180.285 108.848 181.107 108.951C181.971 109.053 182.782 109.28 183.543 109.629C183.461 109.711 183.378 109.783 183.296 109.845C183.214 109.906 183.132 109.937 183.05 109.937C182.762 109.937 182.484 109.906 182.217 109.845C181.95 109.763 181.662 109.721 181.354 109.721V109.351C181.251 109.372 181.107 109.382 180.922 109.382C180.409 109.382 179.905 109.31 179.412 109.166C178.918 109.023 178.415 108.951 177.901 108.951C177.634 108.951 177.377 108.982 177.13 109.043V109.166C177.788 109.208 178.456 109.28 179.134 109.382C179.833 109.465 180.542 109.578 181.262 109.721C180.604 109.619 179.895 109.526 179.134 109.444C178.394 109.362 177.696 109.321 177.038 109.321C176.771 109.321 176.514 109.331 176.267 109.351C176.041 109.351 175.815 109.362 175.589 109.382C175.589 109.814 175.599 110.317 175.62 110.893C175.64 111.468 175.681 112.034 175.743 112.589C175.805 113.123 175.877 113.596 175.959 114.007C176.041 114.418 176.144 114.685 176.267 114.808L176.545 115.363C176.791 116.124 177.613 116.504 179.011 116.504C179.319 116.504 179.689 116.463 180.121 116.381C180.552 116.298 180.984 116.206 181.416 116.103C181.868 115.98 182.289 115.877 182.68 115.795C183.091 115.713 183.44 115.671 183.728 115.671C184.016 115.671 184.18 115.713 184.221 115.795C184.262 115.877 184.283 115.99 184.283 116.134C183.42 116.237 182.587 116.391 181.786 116.596C181.087 116.781 180.409 116.925 179.751 117.028C180.409 116.925 181.077 116.802 181.755 116.658C182.556 116.473 183.368 116.329 184.19 116.226C184.149 116.35 184.129 116.432 184.129 116.473C184.129 116.596 184.18 116.699 184.283 116.781L184.714 116.72C184.838 116.699 184.961 116.689 185.084 116.689C185.208 116.668 185.321 116.637 185.423 116.596C185.793 116.699 186.05 116.812 186.194 116.935C186.359 117.059 186.441 117.192 186.441 117.336C186.441 117.603 186.307 117.788 186.04 117.891C185.793 117.994 185.557 118.158 185.331 118.384H185.208C184.612 118.384 184.036 118.436 183.481 118.539C182.926 118.621 182.371 118.713 181.816 118.816C181.282 118.919 180.727 119.022 180.152 119.124C179.597 119.207 179.021 119.248 178.425 119.248H177.994H177.809C178.199 119.289 178.62 119.309 179.073 119.309C179.648 119.309 180.182 119.278 180.676 119.217C181.19 119.155 181.683 119.083 182.156 119.001C182.628 118.919 183.08 118.847 183.512 118.785C183.964 118.724 184.416 118.693 184.869 118.693C184.54 118.857 184.139 119.022 183.666 119.186C183.193 119.33 182.669 119.453 182.094 119.556C181.518 119.679 180.922 119.772 180.306 119.833C179.689 119.916 179.083 119.957 178.487 119.957C178.076 119.957 177.675 119.936 177.285 119.895C176.894 119.854 176.473 119.72 176.021 119.494L175.99 119.155C175.702 119.052 175.394 118.867 175.065 118.6C174.757 118.313 174.469 118.014 174.202 117.706C173.934 117.398 173.708 117.11 173.523 116.843C173.338 116.576 173.246 116.401 173.246 116.319L173.153 116.041C172.968 115.651 172.814 115.219 172.691 114.747C172.588 114.274 172.506 113.801 172.444 113.328C172.383 112.835 172.331 112.352 172.29 111.879C172.249 111.407 172.218 110.965 172.198 110.554C172.157 109.876 172.126 109.197 172.105 108.519C172.085 107.82 172.074 107.121 172.074 106.423C172.074 105.724 172.074 105.025 172.074 104.326C172.095 103.607 172.105 102.888 172.105 102.168H172.013C171.91 102.949 171.848 103.699 171.828 104.419C171.828 105.138 171.828 105.857 171.828 106.577V107.779C171.828 109.218 171.9 110.718 172.044 112.28C172.208 113.842 172.609 115.363 173.246 116.843C172.773 116.041 172.475 115.25 172.352 114.469C172.229 113.668 172.116 112.928 172.013 112.249C171.889 111.366 171.797 110.513 171.735 109.691C171.694 108.868 171.674 108.026 171.674 107.163V106.515C171.674 105.323 171.704 104.11 171.766 102.877C171.828 101.644 172.013 100.339 172.321 98.962C172.198 98.962 172.136 98.9003 172.136 98.777C172.136 98.6537 172.198 98.479 172.321 98.2529C172.465 98.0268 172.64 97.811 172.845 97.6055C173.051 97.3794 173.277 97.1945 173.523 97.0506C173.791 96.8862 174.047 96.804 174.294 96.804H181.631C182.392 96.9478 183.132 97.0711 183.851 97.1739C184.591 97.2561 185.362 97.3178 186.163 97.3589L186.133 98.068C186.133 98.1913 186.071 98.294 185.948 98.3762C185.845 98.4379 185.598 98.4687 185.208 98.4687C185.084 98.4687 184.93 98.4687 184.745 98.4687C184.581 98.4482 184.396 98.4276 184.19 98.4071V98.6845C185.033 98.8695 185.691 99.0956 186.163 99.3628C186.657 99.63 186.903 99.8869 186.903 100.134C186.903 100.421 186.626 100.596 186.071 100.658C185.537 100.719 184.817 100.75 183.913 100.75C182.762 100.75 181.529 100.75 180.213 100.75C178.918 100.73 177.665 100.668 176.452 100.565H175.928C175.825 101.346 175.753 102.148 175.712 102.97C175.671 103.792 175.64 104.635 175.62 105.498C175.949 105.498 176.267 105.488 176.575 105.467C176.904 105.426 177.243 105.405 177.593 105.405C177.881 105.405 178.209 105.436 178.579 105.498C178.97 105.539 179.371 105.601 179.782 105.683C180.213 105.765 180.635 105.868 181.046 105.991C181.477 106.094 181.868 106.207 182.217 106.33C182.279 106.351 182.351 106.361 182.433 106.361H182.957C183.224 106.361 183.399 106.402 183.481 106.484C183.584 106.567 183.635 106.731 183.635 106.978C183.286 106.978 182.957 106.957 182.649 106.916C182.341 106.875 182.043 106.834 181.755 106.793C182.043 106.895 182.341 106.978 182.649 107.039C182.957 107.08 183.286 107.121 183.635 107.163C183.594 107.265 183.563 107.358 183.543 107.44C183.543 107.522 183.543 107.594 183.543 107.656C183.748 107.697 183.882 107.8 183.944 107.964C184.026 108.108 184.067 108.272 184.067 108.457C184.067 108.725 184.005 108.94 183.882 109.105C183.779 109.249 183.728 109.362 183.728 109.444ZM172.876 112.928C172.958 113.421 173.051 113.955 173.153 114.531C173.277 115.086 173.451 115.641 173.678 116.196C173.924 116.73 174.253 117.233 174.664 117.706C174.993 118.097 175.425 118.426 175.959 118.693C175.342 118.364 174.839 117.912 174.448 117.336C173.996 116.637 173.636 115.856 173.369 114.993C173.123 114.13 172.938 113.215 172.814 112.249C172.712 111.283 172.629 110.359 172.568 109.475C172.588 110.03 172.619 110.595 172.66 111.17C172.701 111.746 172.773 112.332 172.876 112.928ZM180.429 106.638C180.779 106.7 181.148 106.752 181.539 106.793C181.169 106.69 180.82 106.618 180.491 106.577C180.162 106.515 179.833 106.443 179.504 106.361C179.771 106.484 180.08 106.577 180.429 106.638ZM175.373 119.278C175.106 119.155 174.87 119.011 174.664 118.847C174.52 118.724 174.387 118.6 174.263 118.477C174.387 118.6 174.53 118.713 174.695 118.816C174.921 118.98 175.147 119.135 175.373 119.278ZM176.298 118.847L176.021 118.724L176.298 118.847Z" fill="white"/>
<path d="M167.609 98.1296C167.773 98.1296 167.866 98.2323 167.886 98.4379C167.928 98.6228 167.948 98.8078 167.948 98.9928L167.917 99.2086C167.897 99.3319 167.866 99.4963 167.825 99.7019C167.784 99.8868 167.732 100.092 167.671 100.318C167.629 100.545 167.568 100.75 167.486 100.935C167.198 101.839 166.962 102.733 166.777 103.617C166.612 104.501 166.479 105.395 166.376 106.299C166.273 107.183 166.191 108.077 166.129 108.981C166.067 109.886 166.006 110.8 165.944 111.725C166.026 110.883 166.098 109.999 166.16 109.074C166.242 108.149 166.345 107.224 166.468 106.299C166.592 105.354 166.746 104.439 166.931 103.556C167.136 102.651 167.414 101.809 167.763 101.028C167.455 103.001 167.198 104.963 166.992 106.916C166.807 108.868 166.653 110.842 166.53 112.835L166.16 113.02C166.16 114.274 166.037 115.476 165.79 116.627C165.543 117.758 165.266 118.929 164.958 120.142C164.855 120.142 164.732 120.142 164.588 120.142C164.464 120.162 164.341 120.173 164.218 120.173C164.115 120.173 163.971 120.142 163.786 120.08C163.601 120.018 163.406 119.936 163.2 119.833C162.995 119.751 162.779 119.648 162.553 119.525C162.347 119.422 162.173 119.32 162.029 119.217C161.145 118.641 160.354 117.932 159.655 117.09C158.956 116.226 158.329 115.281 157.774 114.253C157.219 113.226 156.726 112.147 156.295 111.016C155.863 109.865 155.452 108.714 155.061 107.563C154.691 106.412 154.332 105.292 153.982 104.203C153.633 103.093 153.284 102.076 152.934 101.151L152.749 101.305C153.099 102.333 153.438 103.453 153.767 104.665C154.116 105.857 154.476 107.08 154.846 108.334C155.236 109.567 155.668 110.79 156.14 112.003C156.634 113.215 157.199 114.346 157.836 115.394C158.494 116.442 159.254 117.377 160.117 118.199C160.981 119.001 161.988 119.628 163.139 120.08C162.152 119.813 161.268 119.361 160.487 118.724C159.727 118.066 159.028 117.295 158.391 116.411C157.774 115.528 157.219 114.572 156.726 113.544C156.253 112.496 155.822 111.438 155.431 110.369C155.041 109.3 154.691 108.252 154.383 107.224C154.075 106.197 153.787 105.261 153.52 104.419C153.52 105.282 153.561 106.125 153.643 106.947C153.746 107.769 153.797 108.601 153.797 109.444C153.797 110.862 153.839 112.29 153.921 113.729C154.003 115.147 154.085 116.565 154.167 117.984L153.489 118.107C153.325 118.107 153.201 117.973 153.119 117.706C153.037 117.418 152.975 117.1 152.934 116.75C152.893 116.401 152.862 116.072 152.842 115.764C152.842 115.435 152.842 115.23 152.842 115.147H152.472C152.472 115.312 152.461 115.641 152.441 116.134C152.441 116.607 152.41 117.1 152.348 117.614C152.287 118.127 152.184 118.59 152.04 119.001C151.917 119.412 151.732 119.618 151.485 119.618C151.321 119.618 151.167 119.35 151.023 118.816C150.879 118.261 150.735 117.542 150.591 116.658C150.447 115.754 150.314 114.736 150.19 113.606C150.067 112.455 149.964 111.294 149.882 110.122C149.8 108.951 149.728 107.81 149.666 106.7C149.625 105.59 149.605 104.614 149.605 103.771C149.605 102.682 149.677 101.603 149.82 100.534C149.985 99.4655 150.242 98.407 150.591 97.3588L153.982 96.7114C154.085 96.8553 154.178 96.9889 154.26 97.1122C154.342 97.215 154.435 97.328 154.537 97.4513C155.133 98.3145 155.647 99.26 156.079 100.288C156.51 101.295 156.901 102.353 157.25 103.463C157.6 104.552 157.929 105.662 158.237 106.793C158.566 107.902 158.925 108.992 159.316 110.061C159.706 111.109 160.159 112.106 160.672 113.051C161.186 113.996 161.813 114.839 162.553 115.579C162.635 114.983 162.707 114.192 162.769 113.205C162.851 112.219 162.933 111.16 163.015 110.03C163.118 108.899 163.221 107.769 163.324 106.638C163.426 105.487 163.55 104.45 163.694 103.525C163.858 102.579 164.043 101.819 164.249 101.243C164.475 100.647 164.732 100.349 165.019 100.349L165.204 100.473C164.773 101.747 164.475 103.031 164.31 104.326C164.166 105.621 164.053 106.926 163.971 108.242C163.909 109.557 163.827 110.872 163.724 112.188C163.642 113.483 163.447 114.767 163.139 116.041L163.324 116.134C163.344 115.949 163.365 115.764 163.385 115.579C163.406 115.373 163.437 115.178 163.478 114.993C163.642 113.801 163.755 112.609 163.817 111.417C163.899 110.204 163.981 108.992 164.064 107.779C164.166 106.567 164.3 105.364 164.464 104.172C164.649 102.98 164.927 101.809 165.297 100.658L165.605 100.873C165.728 100.791 165.841 100.606 165.944 100.318C166.047 100.01 166.17 99.7019 166.314 99.3936C166.458 99.0647 166.633 98.777 166.838 98.5304C167.044 98.2632 167.301 98.1296 167.609 98.1296ZM164.464 119.895C164.69 119.155 164.896 118.415 165.081 117.675C165.266 116.935 165.41 116.175 165.513 115.394C165.389 116.134 165.225 116.863 165.019 117.583C164.834 118.282 164.649 118.991 164.464 119.71C163.231 119.278 162.224 118.806 161.443 118.292C160.683 117.778 160.035 117.192 159.501 116.535C158.987 115.877 158.525 115.137 158.114 114.315C157.785 113.678 157.425 112.969 157.035 112.188C157.281 112.702 157.497 113.174 157.682 113.606C157.97 114.202 158.247 114.757 158.514 115.271C158.802 115.764 159.1 116.216 159.408 116.627C159.717 117.018 160.097 117.398 160.549 117.768C161.001 118.117 161.536 118.467 162.152 118.816C162.789 119.145 163.56 119.505 164.464 119.895ZM163.046 116.812C162.841 116.668 162.573 116.391 162.245 115.98C161.936 115.569 161.618 115.147 161.289 114.716C160.981 114.264 160.703 113.863 160.457 113.513C160.21 113.164 160.066 112.979 160.025 112.958C160.354 113.719 160.775 114.418 161.289 115.055C161.823 115.671 162.378 116.257 162.954 116.812H163.046Z" fill="white"/>
<path d="M212.232 88.3363V87.3806L212.633 87.134C212.571 86.7846 212.53 86.4455 212.51 86.1166C212.489 85.7672 212.479 85.4178 212.479 85.0684C212.479 84.6779 212.479 84.2977 212.479 83.9277C212.499 83.5372 212.51 83.1365 212.51 82.7254C212.51 82.2938 212.489 81.8622 212.448 81.4306C212.407 80.999 212.335 80.5673 212.232 80.1357H212.047C212.068 81.225 212.099 82.2938 212.14 83.342C212.201 84.3902 212.232 85.4589 212.232 86.5482C212.129 84.9862 212.006 83.4242 211.862 81.8622C211.739 80.3002 211.677 78.7176 211.677 77.1145C211.677 76.6417 211.698 76.169 211.739 75.6963C211.801 75.2031 211.862 74.7201 211.924 74.2473L209.889 74.7714L209.92 74.679C209.879 74.6173 209.817 74.5043 209.735 74.3398C209.673 74.1754 209.642 74.0726 209.642 74.0315C209.642 73.9288 209.745 73.826 209.951 73.7232C210.177 73.5999 210.423 73.4972 210.691 73.415C210.978 73.3327 211.246 73.2608 211.492 73.1991C211.759 73.1375 211.944 73.0964 212.047 73.0758L211.955 72.7059C211.79 72.747 211.451 72.7984 210.937 72.86C210.444 72.9011 209.941 72.9217 209.427 72.9217C209.016 72.9217 208.656 72.8909 208.348 72.8292C208.039 72.7675 207.885 72.6339 207.885 72.4284C207.885 72.2023 208.091 71.9763 208.502 71.7502C208.913 71.5241 209.437 71.3186 210.074 71.1336C210.732 70.9281 211.451 70.7431 212.232 70.5787C213.013 70.4142 213.763 70.2704 214.483 70.1471C215.202 70.0237 215.849 69.9312 216.425 69.8696C217 69.8079 217.401 69.7771 217.627 69.7771C218.675 69.7771 219.672 69.9107 220.618 70.1779C221.584 70.4245 222.426 70.8253 223.146 71.3802C223.865 71.9146 224.43 72.6031 224.841 73.4458C225.273 74.2884 225.489 75.2853 225.489 76.4362C225.489 76.9089 225.417 77.4022 225.273 77.916C225.129 78.4093 224.903 78.8923 224.595 79.365C224.307 79.8172 223.927 80.2282 223.454 80.5982C223.002 80.9681 222.457 81.2353 221.82 81.3997C222.889 81.5436 223.803 81.7902 224.564 82.1396C225.345 82.489 225.972 82.9104 226.444 83.4036C226.938 83.8969 227.297 84.4518 227.523 85.0684C227.75 85.685 227.863 86.3427 227.863 87.0415C227.863 87.9458 227.678 88.7165 227.308 89.3537C226.958 89.9908 226.486 90.5252 225.89 90.9568C225.293 91.3884 224.615 91.7173 223.855 91.9433C223.094 92.19 222.303 92.375 221.481 92.4983C220.659 92.6216 219.847 92.6935 219.045 92.7141C218.244 92.7552 217.514 92.7757 216.857 92.7757C216.692 92.7757 216.374 92.7655 215.901 92.7449C215.449 92.7244 214.976 92.6832 214.483 92.6216C213.989 92.5599 213.548 92.4674 213.157 92.3441C212.787 92.2414 212.602 92.0975 212.602 91.9125L212.633 91.7584C213.496 91.9022 214.359 92.0153 215.223 92.0975C216.086 92.2003 216.949 92.2516 217.812 92.2516C218.47 92.2516 219.117 92.2105 219.754 92.1283C220.392 92.0461 221.029 91.9433 221.666 91.82C220.515 92.0256 219.313 92.1283 218.059 92.1283C217.175 92.1283 216.291 92.0872 215.408 92.005C214.544 91.9228 213.681 91.8098 212.818 91.6659L212.972 91.2959L212.91 91.0801C212.849 91.1007 212.756 91.111 212.633 91.111C212.427 91.111 212.191 91.0698 211.924 90.9876C211.657 90.9054 211.4 90.8027 211.153 90.6793C210.927 90.556 210.732 90.4122 210.567 90.2477C210.403 90.0833 210.321 89.9189 210.321 89.7545C210.321 89.6517 210.403 89.5695 210.567 89.5078C210.732 89.4462 210.917 89.4051 211.122 89.3845C211.348 89.3434 211.564 89.3126 211.77 89.292C211.975 89.2715 212.119 89.2509 212.201 89.2304L212.232 88.3363ZM215.315 73.7232C215.356 73.8466 215.397 74.1137 215.438 74.5248C215.5 74.9153 215.551 75.3777 215.593 75.9121C215.654 76.4465 215.706 77.022 215.747 77.6386C215.788 78.2551 215.819 78.8512 215.839 79.4267C215.88 79.9816 215.911 80.4851 215.932 80.9373C215.952 81.3689 215.962 81.6772 215.962 81.8622C215.962 82.9515 215.921 84.0408 215.839 85.1301C215.757 86.1988 215.716 87.2778 215.716 88.3671C215.716 88.7782 215.849 89.0351 216.117 89.1379C216.404 89.2406 216.713 89.292 217.042 89.292C218.028 89.292 219.004 89.2612 219.97 89.1995C220.936 89.1173 221.882 88.9015 222.807 88.5521L222.899 88.9221C223.31 88.7165 223.67 88.4699 223.978 88.1822C224.307 87.8739 224.471 87.4731 224.471 86.9798C224.471 86.4249 224.297 85.9522 223.947 85.5617C223.598 85.1506 223.166 84.8218 222.652 84.5751C222.159 84.3285 221.625 84.1435 221.049 84.0202C220.494 83.8969 220.001 83.8352 219.57 83.8352C219.528 83.8352 219.446 83.8661 219.323 83.9277C219.2 83.9688 219.107 83.9997 219.045 84.0202C219.333 84.0408 219.693 84.0922 220.124 84.1744C220.556 84.2566 220.998 84.3696 221.45 84.5135C221.902 84.6368 222.334 84.8012 222.745 85.0068C223.156 85.2123 223.495 85.4384 223.762 85.685C223.372 85.3767 222.837 85.1198 222.159 84.9143C221.46 84.7087 220.741 84.5443 220.001 84.421C219.282 84.2977 218.614 84.2052 217.997 84.1435C217.381 84.0613 216.959 83.9997 216.733 83.9586L216.579 80.5365H216.641C217.175 80.5365 217.73 80.444 218.306 80.2591C218.902 80.0535 219.446 79.7761 219.939 79.4267C220.433 79.0567 220.844 78.6251 221.173 78.1318C221.501 77.618 221.666 77.0631 221.666 76.4671C221.666 75.8916 221.543 75.4189 221.296 75.0489C221.049 74.679 220.72 74.3912 220.309 74.1857C219.919 73.9596 219.477 73.8157 218.984 73.7541C218.49 73.6719 218.007 73.6308 217.535 73.6308C217.165 73.6308 216.795 73.6513 216.425 73.6924C216.055 73.713 215.685 73.7232 215.315 73.7232ZM215.747 89.9394C216.096 89.9805 216.425 90.0114 216.733 90.0319C217.062 90.0525 217.401 90.0628 217.751 90.0628C218.079 90.0628 218.48 90.0525 218.953 90.0319C219.446 89.9908 219.96 89.9292 220.494 89.847C221.049 89.7647 221.594 89.6517 222.128 89.5078C222.683 89.364 223.177 89.179 223.608 88.9529C224.04 88.7268 224.389 88.4494 224.656 88.1205C224.944 87.7917 225.088 87.4012 225.088 86.949C225.088 86.7024 225.047 86.466 224.965 86.2399C224.882 86.0138 224.769 85.798 224.626 85.5925C224.728 85.7569 224.81 85.9419 224.872 86.1474C224.954 86.3324 224.995 86.5277 224.995 86.7332C224.995 87.432 224.759 87.9869 224.286 88.398C223.814 88.809 223.238 89.1276 222.56 89.3537C221.902 89.5592 221.214 89.6928 220.494 89.7545C219.775 89.8161 219.158 89.847 218.645 89.847C218.172 89.847 217.689 89.8367 217.196 89.8161C216.723 89.775 216.25 89.7339 215.778 89.6928L215.747 89.9394ZM212.972 89.4462C213.013 88.7268 213.034 87.9972 213.034 87.2573V85.0684C213.034 84.6574 213.023 84.2566 213.003 83.8661C212.982 83.4961 212.951 83.1262 212.91 82.7562C212.91 83.2906 212.91 83.825 212.91 84.3593C212.931 84.9143 212.941 85.4692 212.941 86.0241C212.941 86.5996 212.931 87.1648 212.91 87.7197C212.89 88.2747 212.838 88.8296 212.756 89.3845L212.972 89.4462ZM218.799 80.629C219.169 80.4029 219.518 80.1666 219.847 79.9199C220.196 79.6733 220.515 79.3856 220.803 79.0567C220.7 79.0567 220.649 79.0156 220.649 78.9334C220.011 79.6322 219.22 80.1768 218.275 80.5673L218.799 80.629ZM220.402 83.4961C221.018 83.5989 221.676 83.7941 222.375 84.0819C222.971 84.3285 223.505 84.6163 223.978 84.9451C223.526 84.5751 222.992 84.2566 222.375 83.9894C221.697 83.6605 221.049 83.4961 220.433 83.4961H220.402ZM213.373 74.4015L213.589 73.9082L213.095 73.9699C213.095 74.011 213.095 74.0521 213.095 74.0932C213.116 74.1138 213.126 74.1446 213.126 74.1857C213.126 74.2268 213.116 74.2679 213.095 74.309C213.095 74.3296 213.095 74.3604 213.095 74.4015H213.373ZM226.907 88.4905C227.112 87.9561 227.215 87.4525 227.215 86.9798V86.6407C227.215 86.5174 227.205 86.4043 227.184 86.3016C227.184 86.9593 227.112 87.5759 226.969 88.1513C226.845 88.7063 226.568 89.2304 226.136 89.7236C226.465 89.3948 226.722 88.9837 226.907 88.4905ZM215.346 83.4345C215.264 83.825 215.212 84.2155 215.192 84.606C215.171 84.9348 215.161 85.2739 215.161 85.6233C215.181 85.2945 215.212 84.9657 215.253 84.6368C215.295 84.2463 215.325 83.8455 215.346 83.4345ZM226.074 89.7853C225.684 90.1964 225.252 90.5252 224.78 90.7718C224.307 91.0185 223.814 91.2445 223.3 91.4501C223.834 91.2651 224.338 91.0493 224.81 90.8027C225.283 90.556 225.705 90.2169 226.074 89.7853ZM225.119 82.8795C225.304 83.044 225.478 83.2084 225.643 83.3728L226.074 83.8044C225.951 83.6194 225.818 83.455 225.674 83.3111C225.53 83.1467 225.345 83.0029 225.119 82.8795ZM215.161 89.107V88.1822C215.14 88.3466 215.12 88.5007 215.099 88.6446C215.099 88.7885 215.099 88.9426 215.099 89.107H215.161ZM223.824 85.7467C224.153 86.0138 224.317 86.3324 224.317 86.7024V86.764C224.256 86.3941 224.091 86.055 223.824 85.7467ZM223.731 88.028C223.546 88.213 223.32 88.3569 223.053 88.4596L223.731 88.028ZM215.038 89.847H215.161V89.6311H215.038V89.847ZM224.101 87.5039C224.081 87.5039 224.071 87.4834 224.071 87.4423C224.071 87.4012 224.081 87.3498 224.101 87.2881C224.143 87.2059 224.184 87.1443 224.225 87.1031L224.101 87.5039ZM224.317 86.949C224.317 86.9696 224.297 87.0004 224.256 87.0415L224.317 86.9182V86.949Z" fill="white"/>
<path d="M205.132 71.3493C205.05 71.6781 204.988 72.0172 204.947 72.3666C204.927 72.716 204.916 73.0757 204.916 73.4457C204.916 74.2472 204.927 75.0693 204.947 75.912C204.968 76.7341 204.978 77.5048 204.978 78.2242C204.978 79.6834 204.865 81.1633 204.639 82.6636C204.433 84.1434 204.033 85.4999 203.437 86.7331C202.841 87.9662 201.998 89.0144 200.909 89.8777C199.819 90.7203 198.411 91.2341 196.685 91.4191C198.555 91.2341 200.056 90.6895 201.186 89.7852C202.317 88.8603 203.19 87.7299 203.807 86.394C204.423 85.0375 204.834 83.5577 205.04 81.9545C205.245 80.3514 205.348 78.7791 205.348 77.2377C205.348 76.6005 205.338 75.9634 205.317 75.3262C205.297 74.6891 205.286 74.052 205.286 73.4148V72.7058C205.286 72.4591 205.297 72.2228 205.317 71.9967C205.584 72.6338 205.739 73.4148 205.78 74.3397C205.841 75.2646 205.872 76.1381 205.872 76.9602C205.872 77.8234 205.862 78.5941 205.841 79.2724C205.821 79.9301 205.749 80.6905 205.626 81.5538L205.317 82.0162C205.153 83.4754 204.845 84.8114 204.392 86.024C203.94 87.2366 203.313 88.2848 202.512 89.1686C201.71 90.0318 200.724 90.7101 199.552 91.2033C198.381 91.676 197.014 91.9124 195.452 91.9124C194.157 91.9124 192.883 91.7274 191.629 91.3575C190.396 91.0081 189.296 90.3709 188.33 89.4461L188.269 89.6619C189.235 90.6073 190.324 91.265 191.537 91.6349C192.77 92.0049 194.044 92.1899 195.359 92.1899C196.839 92.1899 198.144 91.9638 199.275 91.5116C200.405 91.0595 201.381 90.4326 202.203 89.631C203.046 88.8089 203.735 87.8327 204.269 86.7022C204.783 85.6129 205.184 84.4003 205.471 83.0644C205.184 84.4414 204.793 85.6849 204.3 86.7947C203.807 87.9457 203.159 88.9322 202.358 89.7543C201.556 90.5765 200.59 91.2033 199.46 91.6349C198.329 92.0871 196.983 92.3132 195.421 92.3132C193.633 92.3132 192.091 92.0357 190.797 91.4808C189.522 90.9259 188.474 90.1448 187.652 89.1378C186.83 88.1307 186.224 86.9283 185.833 85.5307C185.443 84.1331 185.247 82.5917 185.247 80.9063C185.247 80.002 185.309 79.1182 185.432 78.255C185.576 77.3713 185.741 76.4978 185.926 75.6345C186.111 74.7713 186.296 73.9081 186.481 73.0449C186.666 72.1611 186.809 71.2773 186.912 70.3936H187.652C187.775 70.4347 187.858 70.5374 187.899 70.7019C187.94 70.8663 187.96 70.9999 187.96 71.1026C187.96 71.3904 187.94 71.6678 187.899 71.935C187.858 72.2022 187.816 72.4797 187.775 72.7674H188.053C188.073 72.6441 188.135 72.4077 188.238 72.0583C188.361 71.6884 188.495 71.3184 188.639 70.9485C188.803 70.5785 188.978 70.2497 189.163 69.962C189.348 69.6537 189.533 69.4995 189.718 69.4995C189.841 69.4995 189.933 69.5714 189.995 69.7153C190.057 69.8592 190.098 70.0236 190.118 70.2086C190.16 70.3936 190.18 70.5888 190.18 70.7943C190.201 70.9793 190.211 71.1232 190.211 71.226C190.211 72.0686 190.149 72.901 190.026 73.7231C189.923 74.5247 189.8 75.3365 189.656 76.1586C189.512 76.9807 189.378 77.8029 189.255 78.625C189.152 79.4471 189.101 80.2692 189.101 81.0913C189.101 82.1806 189.224 83.1774 189.471 84.0818C189.718 84.9861 190.108 85.7671 190.642 86.4248C191.197 87.0619 191.886 87.5655 192.708 87.9354C193.551 88.2848 194.558 88.4595 195.729 88.4595C196.983 88.4595 198.031 88.1512 198.874 87.5346C199.737 86.9181 200.426 86.137 200.939 85.1916C201.474 84.2256 201.844 83.1672 202.049 82.0162C202.275 80.8652 202.388 79.7657 202.388 78.7175C202.388 77.8542 202.347 77.0013 202.265 76.1586C202.183 75.316 202.142 74.463 202.142 73.5998V73.5073C202.142 73.3223 202.162 73.0757 202.203 72.7674C202.265 72.4591 202.419 72.305 202.666 72.305C202.707 72.305 202.738 72.5927 202.758 73.1682C202.8 73.7231 202.83 74.3603 202.851 75.0796C202.871 75.799 202.882 76.4875 202.882 77.1452C202.902 77.8029 202.913 78.2242 202.913 78.4092V79.6423C202.913 80.0328 202.892 80.4336 202.851 80.8447C202.954 80.3103 203.005 79.7862 203.005 79.2724C203.026 78.7586 203.036 78.2345 203.036 77.7001C203.036 76.8163 203.015 75.9326 202.974 75.0488L202.851 72.3975H203.437C203.396 72.1919 203.375 71.8836 203.375 71.4726C203.375 71.1026 203.416 70.743 203.498 70.3936C203.581 70.0236 203.755 69.8386 204.022 69.8386C204.146 69.8386 204.269 69.9003 204.392 70.0236C204.516 70.1469 204.618 70.2908 204.701 70.4552C204.803 70.6196 204.886 70.7943 204.947 70.9793C205.029 71.1437 205.091 71.2671 205.132 71.3493ZM200.446 87.3805C200.158 87.5449 199.778 87.7813 199.306 88.0896C198.833 88.3979 198.216 88.6856 197.456 88.9528C197.744 88.8911 198.031 88.8089 198.319 88.7062C198.627 88.5828 198.915 88.4492 199.182 88.3054C199.449 88.1409 199.696 87.9765 199.922 87.8121C200.148 87.6477 200.323 87.5038 200.446 87.3805Z" fill="white"/>
<path d="M168.155 82.2937C168.216 83.7324 168.278 85.1711 168.34 86.6098C168.422 88.0485 168.484 89.4872 168.525 90.9259V91.0801L168.432 90.9876V90.7718C168.329 88.922 168.227 87.1031 168.124 85.315C168.042 83.5063 168.001 81.6771 168.001 79.8274V76.3437C168.001 75.7887 168.001 75.2441 168.001 74.7097C168.021 74.1548 168.042 73.5999 168.062 73.0449C168.083 72.4078 168.134 71.7912 168.216 71.1952C168.299 70.5786 168.34 69.9415 168.34 69.2838H168.463C168.607 69.2838 168.73 69.2735 168.833 69.2529C168.936 69.2324 169.018 69.2221 169.08 69.2221C169.285 69.2221 169.408 69.3557 169.45 69.6229C169.491 69.8901 169.511 70.0956 169.511 70.2395L169.48 70.8869H169.85C169.871 70.7636 169.902 70.5683 169.943 70.3011C170.004 70.0134 170.087 69.7257 170.189 69.4379C170.292 69.1502 170.405 68.9035 170.529 68.698C170.672 68.4719 170.837 68.3589 171.022 68.3589C171.227 68.3589 171.382 68.5439 171.484 68.9138C171.608 69.2838 171.7 69.7257 171.762 70.2395C171.823 70.7327 171.854 71.2466 171.854 71.7809C171.875 72.2948 171.885 72.7058 171.885 73.0141V73.3841C171.885 75.7476 171.906 78.1112 171.947 80.4748C171.988 82.8384 172.008 85.2019 172.008 87.5655C172.008 87.7505 171.998 87.9457 171.978 88.1513C171.978 88.3363 171.978 88.5212 171.978 88.7062C171.978 88.809 171.978 88.9015 171.978 88.9837C171.998 89.0659 172.008 89.1584 172.008 89.2611H172.317C172.502 89.2611 172.687 89.2714 172.872 89.292C173.057 89.292 173.242 89.292 173.427 89.292C174.721 89.292 175.996 89.2303 177.249 89.107C178.524 88.9631 179.808 88.8912 181.103 88.8912H181.226C181.432 88.8912 181.678 88.922 181.966 88.9837C182.254 89.0248 182.398 89.1686 182.398 89.4153V89.4769C181.309 89.4769 180.24 89.518 179.192 89.6003C178.143 89.6619 177.075 89.7441 175.985 89.8469C176.787 89.8058 177.578 89.7544 178.359 89.6927C179.161 89.6311 179.962 89.6003 180.764 89.6003C181.031 89.6003 181.288 89.6105 181.535 89.6311C181.781 89.6311 182.038 89.6414 182.305 89.6619L182.182 90.0319C182.305 90.0524 182.47 90.0832 182.675 90.1243C182.881 90.1449 183.076 90.1963 183.261 90.2785C183.467 90.3607 183.641 90.4635 183.785 90.5868C183.929 90.6896 184.001 90.8231 184.001 90.9876C184.001 91.2753 183.867 91.4706 183.6 91.5733C183.333 91.6966 183.086 91.8097 182.86 91.9125C182.552 91.8097 182.223 91.748 181.874 91.7275C181.545 91.7275 181.216 91.7275 180.887 91.7275C180.168 91.7275 179.459 91.7583 178.76 91.82C178.102 91.8816 177.434 91.9433 176.756 92.0049C177.249 91.9844 177.722 91.9638 178.174 91.9433C178.688 91.9227 179.202 91.9125 179.716 91.9125C180.168 91.9125 180.61 91.9227 181.041 91.9433C181.494 91.9638 181.946 92.0152 182.398 92.0974C182.028 92.2618 181.565 92.3852 181.011 92.4674C180.476 92.5496 179.911 92.6112 179.315 92.6523C178.739 92.6935 178.164 92.714 177.588 92.714C177.013 92.7346 176.509 92.7551 176.078 92.7757L175.8 92.4674C175.348 92.5701 174.896 92.6318 174.444 92.6523C173.992 92.6935 173.529 92.714 173.057 92.714C172.563 92.714 172.07 92.6935 171.577 92.6523C171.084 92.6112 170.601 92.5496 170.128 92.4674C169.902 92.2207 169.676 91.9741 169.45 91.7275C169.223 91.5014 168.977 91.2753 168.71 91.0492C168.71 89.5694 168.669 88.1102 168.586 86.6715C168.525 85.2328 168.442 83.7735 168.34 82.2937H168.155ZM174.721 92.1591C174.228 92.1796 173.714 92.1899 173.18 92.1899C172.543 92.1899 171.947 92.1694 171.392 92.1283C170.837 92.0871 170.446 92.0152 170.22 91.9125L169.295 91.0184L169.018 87.3805V88.0588C169.018 88.5315 169.049 89.0042 169.11 89.4769C169.172 89.9496 169.203 90.4224 169.203 90.8951V91.0801C169.367 91.2445 169.521 91.4089 169.665 91.5733C169.83 91.7377 169.984 91.9124 170.128 92.0974H170.344C170.796 92.0974 171.238 92.118 171.669 92.1591C172.121 92.2207 172.574 92.2516 173.026 92.2516C173.498 92.2516 173.961 92.231 174.413 92.1899C174.577 92.1899 174.752 92.1796 174.937 92.1591H174.721ZM172.101 90.001C172.204 90.0216 172.306 90.0421 172.409 90.0627C172.532 90.0627 172.656 90.0627 172.779 90.0627C173.313 90.0627 173.848 90.0524 174.382 90.0319C174.917 90.0113 175.451 89.9497 175.985 89.8469C175.328 89.888 174.68 89.9085 174.043 89.9085C173.406 89.9085 172.759 89.9188 172.101 89.9394V90.001ZM170.035 92.6832C170.385 92.7859 170.744 92.8476 171.114 92.8682C171.505 92.9093 171.906 92.9298 172.317 92.9298C172.563 92.9298 172.8 92.9195 173.026 92.899C173.231 92.899 173.427 92.899 173.612 92.899C173.488 92.9195 173.344 92.9298 173.18 92.9298C173.015 92.9504 172.851 92.9606 172.687 92.9606H172.07C171.823 92.9606 171.566 92.9504 171.299 92.9298C171.053 92.9093 170.806 92.8887 170.559 92.8682C170.333 92.8476 170.169 92.8168 170.066 92.7757C170.004 92.714 169.902 92.601 169.758 92.4365C169.614 92.2927 169.46 92.1385 169.295 91.9741C169.131 91.8097 168.977 91.6453 168.833 91.4808C168.71 91.337 168.638 91.2445 168.617 91.2034L170.035 92.6832ZM171.299 89.8777L170.621 89.7544C170.744 89.7955 170.929 89.8777 171.176 90.001C171.423 90.1038 171.608 90.1655 171.731 90.186L171.638 89.8469L171.299 89.8777Z" fill="white"/>
<path d="M164.31 87.9355C164.269 88.4494 164.064 88.9015 163.694 89.292C163.344 89.662 162.902 89.9806 162.368 90.2477C161.854 90.4944 161.299 90.6794 160.703 90.8027C160.128 90.926 159.604 90.9876 159.131 90.9876C157.733 90.9876 156.48 90.6588 155.37 90.0011C154.26 89.3229 153.314 88.4596 152.533 87.4114C151.752 86.3427 151.136 85.1609 150.684 83.8661C150.252 82.6124 150.005 81.3792 149.944 80.1666C149.985 81.4203 150.221 82.6843 150.653 83.9586C151.105 85.274 151.722 86.466 152.503 87.5348C153.284 88.6035 154.239 89.477 155.37 90.1553C156.5 90.8129 157.774 91.1418 159.193 91.1418C159.974 91.1418 160.734 91.0185 161.474 90.7718C162.214 90.5252 162.902 90.1861 163.54 89.7545C163.067 90.4738 162.44 90.9876 161.659 91.2959C160.878 91.6042 160.076 91.7584 159.254 91.7584C158.329 91.7584 157.476 91.6248 156.695 91.3576C155.914 91.111 155.154 90.7102 154.414 90.1553L154.291 89.662C153.448 89.1482 152.718 88.511 152.102 87.7506C151.506 86.9901 151.013 86.168 150.622 85.2842C150.252 84.4005 149.975 83.4756 149.79 82.5096C149.625 81.5436 149.543 80.5776 149.543 79.6116C149.543 78.584 149.636 77.5666 149.82 76.5595C150.026 75.5319 150.303 74.5248 150.653 73.5383C150.571 73.5383 150.53 73.5074 150.53 73.4458C150.098 74.3912 149.779 75.3675 149.574 76.3746C149.368 77.3817 149.266 78.4093 149.266 79.4575C149.266 81.4511 149.656 83.3728 150.437 85.2226C151.218 87.0518 152.379 88.6035 153.921 89.8778C153.119 89.2612 152.41 88.5521 151.794 87.7506C151.198 86.949 150.704 86.0961 150.314 85.1917C149.923 84.2669 149.625 83.3112 149.42 82.3246C149.235 81.3381 149.142 80.3413 149.142 79.3342C149.142 77.9777 149.327 76.6007 149.697 75.2031C150.088 73.7849 150.663 72.5004 151.424 71.3494C152.205 70.1984 153.171 69.2633 154.322 68.5439C155.473 67.804 156.819 67.4341 158.36 67.4341C159.059 67.4341 159.717 67.5471 160.333 67.7732C160.97 67.9993 161.566 68.2973 162.121 68.6673C162.676 69.0372 163.19 69.4585 163.663 69.9313C164.156 70.404 164.619 70.887 165.05 71.3802L164.403 71.9352C164.115 71.8324 163.838 71.6782 163.57 71.4727C163.324 71.2466 163.098 71.0206 162.892 70.7945L162.707 71.0103C162.974 71.3186 163.221 71.6782 163.447 72.0893C163.673 72.4798 163.786 72.8909 163.786 73.3225L163.447 73.8774C163.18 73.8568 162.841 73.7027 162.43 73.415C162.039 73.1067 161.597 72.7881 161.104 72.4593C160.631 72.1099 160.138 71.7913 159.624 71.5035C159.131 71.2158 158.648 71.0719 158.175 71.0719C157.559 71.0719 157.004 71.2261 156.51 71.5344C156.038 71.8427 155.606 72.2434 155.216 72.7367C154.825 73.23 154.486 73.7952 154.198 74.4323C153.931 75.0695 153.705 75.7169 153.52 76.3746C153.356 77.0323 153.222 77.6797 153.119 78.3168C153.037 78.9334 152.996 79.478 152.996 79.9508C152.996 80.7523 153.119 81.6361 153.366 82.6021C153.633 83.5681 154.013 84.4724 154.507 85.3151C155.02 86.1372 155.647 86.8257 156.387 87.3806C157.127 87.9355 157.97 88.213 158.915 88.213C159.347 88.213 159.789 88.1719 160.241 88.0897C160.713 87.9869 161.135 87.8225 161.505 87.5964L161.751 87.8739C160.97 88.4699 160.076 88.7679 159.069 88.7679C158.083 88.7679 157.178 88.5316 156.356 88.0589C156.747 88.326 157.178 88.5213 157.651 88.6446C158.165 88.7885 158.679 88.8604 159.193 88.8604C160.138 88.8604 161.022 88.5932 161.844 88.0589L162.121 88.4596C162.327 88.2336 162.584 88.0178 162.892 87.8122C163.2 87.5861 163.519 87.4526 163.848 87.4114L164.31 87.9355ZM152.533 81.7389C152.636 82.9309 152.986 84.0716 153.582 85.1609C154.178 86.2297 154.959 87.0929 155.925 87.7506C154.959 87.0723 154.198 86.1988 153.643 85.1301C153.068 84.0408 152.698 82.9104 152.533 81.7389Z" fill="white"/>
<path d="M237.119 43.4591C235.536 43.4591 233.964 43.5105 232.402 43.6133C230.84 43.6955 229.278 43.7366 227.716 43.7366C227.983 43.7571 228.24 43.7777 228.487 43.7982C228.754 43.7982 229.032 43.7982 229.319 43.7982C230.265 43.7982 231.2 43.788 232.125 43.7674C233.07 43.7263 234.016 43.7058 234.961 43.7058H235.886C236.194 43.7058 236.513 43.716 236.842 43.7366C236.554 43.9216 236.246 44.0552 235.917 44.1374C235.608 44.2196 235.29 44.2812 234.961 44.3223C234.653 44.3429 234.324 44.3532 233.974 44.3532C233.646 44.3532 233.317 44.3634 232.988 44.384L232.71 44.014C232.238 44.0963 231.765 44.1476 231.292 44.1682C230.82 44.1887 230.347 44.199 229.874 44.199L227.13 44.1682L227.161 44.4457L232.31 44.4148C230.563 44.5176 228.847 44.5793 227.161 44.5998C227.182 44.867 227.202 45.1342 227.223 45.4014C227.243 45.648 227.274 45.9049 227.315 46.1721L226.945 46.2646C227.11 46.9634 227.223 47.7341 227.285 48.5768C227.367 49.3989 227.439 50.2416 227.5 51.1048C227.562 51.968 227.644 52.8209 227.747 53.6636C227.87 54.4857 228.045 55.2359 228.271 55.9141L228.364 55.8217C228.24 55.1229 228.127 54.3727 228.024 53.5711C227.922 52.749 227.819 51.9166 227.716 51.074C227.634 50.2107 227.552 49.3681 227.47 48.546C227.408 47.7649 227.356 47.0353 227.315 46.3571C227.398 47.4464 227.521 48.5871 227.685 49.7791C227.87 50.9917 228.066 52.2249 228.271 53.4786C228.477 54.7118 228.672 55.9347 228.857 57.1473C229.062 58.3599 229.247 59.5212 229.412 60.631C229.453 60.9804 229.504 61.3607 229.566 61.7717C229.628 62.1622 229.658 62.563 229.658 62.9741V63.344C229.658 63.4879 229.638 63.6215 229.597 63.7448C229.453 63.7448 229.309 63.7653 229.165 63.8064C229.042 63.8681 228.908 63.8989 228.764 63.8989C228.538 63.8989 228.394 63.7859 228.333 63.5598C228.292 63.3337 228.271 63.1385 228.271 62.9741H227.994C227.973 63.0974 227.932 63.2515 227.87 63.4365C227.829 63.642 227.757 63.8373 227.654 64.0222C227.572 64.2072 227.459 64.3614 227.315 64.4847C227.192 64.608 227.048 64.6697 226.884 64.6697C226.678 64.6697 226.493 64.5258 226.329 64.238C226.164 63.9503 226.01 63.5804 225.866 63.1282C225.743 62.676 225.63 62.1828 225.527 61.6484C225.445 61.0935 225.363 60.5694 225.281 60.0761C225.219 59.5623 225.157 59.0998 225.096 58.6888C225.055 58.2777 225.013 57.9797 224.972 57.7947C224.767 56.9315 224.572 55.9861 224.387 54.9584C224.222 53.9308 224.078 52.8929 223.955 51.8447C223.832 50.7965 223.729 49.7586 223.647 48.7309C223.585 47.6827 223.554 46.7065 223.554 45.8021C223.554 45.6583 223.554 45.5247 223.554 45.4014C223.575 45.2575 223.585 45.1136 223.585 44.9698V44.7848C223.585 44.7026 223.575 44.6204 223.554 44.5381C222.342 44.5176 221.191 44.4662 220.101 44.384C219.012 44.2812 217.799 44.1476 216.463 43.9832C216.484 43.8599 216.494 43.7263 216.494 43.5824C216.494 43.4386 216.505 43.305 216.525 43.1817C216.566 43.0583 216.618 42.9556 216.679 42.8734C216.761 42.7706 216.895 42.7192 217.08 42.7192C217.203 42.7192 217.347 42.7398 217.512 42.7809L217.604 42.5034C217.358 42.4006 217.07 42.2362 216.741 42.0101C216.412 41.7841 216.248 41.5169 216.248 41.2086C216.248 41.0236 216.32 40.89 216.463 40.8078C216.607 40.705 216.782 40.6331 216.988 40.592C217.193 40.5509 217.399 40.5303 217.604 40.5303C217.81 40.5098 217.964 40.4995 218.067 40.4995C218.806 40.4995 219.536 40.5406 220.255 40.6228C220.995 40.705 221.735 40.7461 222.475 40.7461C224.345 40.7461 226.206 40.777 228.055 40.8386C229.905 40.8797 231.765 40.9003 233.635 40.9003C234.005 40.9003 234.365 40.8489 234.714 40.7461C235.084 40.6434 235.454 40.592 235.824 40.592C235.968 40.592 236.091 40.6331 236.194 40.7153C236.318 40.7975 236.379 40.9208 236.379 41.0853C235.824 41.188 235.259 41.2702 234.684 41.3319C234.17 41.373 233.646 41.4141 233.111 41.4552C233.646 41.4552 234.17 41.4347 234.684 41.3936C235.238 41.3525 235.804 41.3113 236.379 41.2702V41.856L236.934 41.7635C237.099 41.8046 237.253 41.8868 237.397 42.0101C237.54 42.1129 237.612 42.2671 237.612 42.4726C237.612 42.6576 237.561 42.8425 237.458 43.0275C237.355 43.1919 237.242 43.3358 237.119 43.4591ZM226.298 44.5998C226.339 45.1958 226.39 45.8535 226.452 46.5729C226.534 47.2922 226.617 48.0219 226.699 48.7618C226.781 49.5017 226.863 50.2313 226.945 50.9506C227.048 51.6494 227.141 52.2968 227.223 52.8929C227.161 52.3174 227.089 51.67 227.007 50.9506C226.945 50.2313 226.884 49.5017 226.822 48.7618C226.76 48.0219 226.699 47.2922 226.637 46.5729C226.596 45.8535 226.575 45.1958 226.575 44.5998H226.298ZM231.909 41.4552H230.213C229.699 41.4552 229.186 41.4449 228.672 41.4244C228.918 41.4655 229.155 41.5066 229.381 41.5477C229.669 41.6094 229.987 41.6402 230.337 41.6402C230.583 41.6402 230.84 41.6196 231.107 41.5785C231.395 41.5374 231.662 41.4963 231.909 41.4552ZM226.421 44.4457H226.575V44.1682H226.421V44.4457Z" fill="white"/>
<path d="M212.012 64.3305C211.847 64.2894 211.662 64.2175 211.457 64.1147C211.272 64.0325 211.128 63.9092 211.025 63.7447C211.025 63.0254 211.004 62.3163 210.963 61.6175C210.943 60.8982 210.932 60.1788 210.932 59.4595C210.932 58.3496 210.963 57.2398 211.025 56.1299C211.107 55.0201 211.148 53.9102 211.148 52.8004C210.984 54.5679 210.902 56.3354 210.902 58.103C210.902 59.85 210.85 61.6073 210.748 63.3748C210.46 62.9637 210.285 62.5013 210.223 61.9875C210.182 61.4531 210.162 60.9393 210.162 60.446L210.223 58.9046L210.563 58.7504C210.501 58.1749 210.47 57.5789 210.47 56.9623C210.47 56.243 210.501 55.5442 210.563 54.8659C210.624 54.1671 210.686 53.4581 210.748 52.7387H210.501L210.193 57.5789L210.347 52.7387C209.792 52.7387 209.247 52.7901 208.713 52.8928C208.178 52.9956 207.634 53.047 207.079 53.047C206.031 53.047 204.982 53.0264 203.934 52.9853C202.907 52.9442 201.869 52.9031 200.82 52.862C200.82 54.013 200.759 55.1537 200.636 56.2841C200.533 57.3939 200.481 58.514 200.481 59.6445C200.481 59.8089 200.492 60.0247 200.512 60.2919C200.553 60.5385 200.574 60.8057 200.574 61.0934C200.574 61.3606 200.543 61.597 200.481 61.8025C200.42 62.008 200.307 62.1416 200.142 62.2033L199.926 62.1416L199.957 58.9354C199.916 59.4698 199.885 60.0041 199.865 60.5385C199.844 61.0729 199.834 61.6073 199.834 62.1416C199.772 62.1211 199.68 62.1108 199.556 62.1108C199.413 62.1108 199.32 62.1211 199.279 62.1416C199.3 62.2033 199.31 62.2855 199.31 62.3883C199.31 62.8815 199.063 63.1898 198.57 63.3131C198.385 63.2309 198.231 63.159 198.108 63.0973C197.984 63.0357 197.881 62.9535 197.799 62.8507C197.717 62.7274 197.655 62.5835 197.614 62.4191C197.573 62.2547 197.553 62.0286 197.553 61.7408V61.2167L197.398 62.2341C197.234 62.0697 197.131 61.895 197.09 61.71C197.049 61.525 197.028 61.3298 197.028 61.1243C197.028 60.6104 197.049 60.1069 197.09 59.6136C197.131 59.0998 197.152 58.586 197.152 58.0722L197.398 57.918C197.337 57.2398 197.306 56.5615 197.306 55.8833C197.306 55.2256 197.316 54.5576 197.337 53.8794C197.378 53.2011 197.398 52.5229 197.398 51.8447C197.398 51.3719 197.388 50.8889 197.368 50.3957C197.347 49.9024 197.296 49.4194 197.213 48.9467H197.028C197.07 49.7688 197.09 50.5909 197.09 51.413C197.111 52.2352 197.121 53.0573 197.121 53.8794V57.733C197.121 55.6778 197.059 53.6225 196.936 51.5672C196.833 49.5119 196.782 47.4566 196.782 45.4013C196.885 44.4148 196.967 43.5619 197.028 42.8425C197.111 42.1232 197.203 41.3319 197.306 40.4687C197.511 40.4892 197.738 40.52 197.984 40.5611C198.251 40.6022 198.385 40.7667 198.385 41.0544L198.323 41.5785H198.724C198.765 41.4552 198.817 41.3113 198.878 41.1469C198.96 40.9619 199.053 40.7975 199.156 40.6536C199.258 40.4892 199.372 40.3556 199.495 40.2528C199.639 40.1295 199.793 40.0679 199.957 40.0679C200.163 40.0679 200.317 40.222 200.42 40.5303C200.543 40.818 200.636 41.1983 200.697 41.671C200.759 42.1437 200.8 42.6986 200.82 43.3358C200.841 43.9524 200.851 44.5792 200.851 45.2164C200.851 45.5658 200.841 45.9049 200.82 46.2337C200.82 46.5626 200.82 46.8811 200.82 47.1894C200.82 47.6005 200.82 47.991 200.82 48.3609C200.841 48.7103 200.862 49.0289 200.882 49.3167H202.516L202.763 49.6866C203.05 49.6455 203.328 49.6147 203.595 49.5941C203.862 49.5736 204.14 49.5633 204.428 49.5633C204.654 49.5633 204.89 49.5736 205.137 49.5941C205.383 49.5941 205.62 49.5941 205.846 49.5941C206.236 49.5941 206.616 49.5736 206.986 49.5325C207.377 49.4914 207.767 49.4194 208.158 49.3167V49.1317C207.439 49.2344 206.729 49.2961 206.031 49.3167C205.394 49.3167 204.746 49.3167 204.088 49.3167C205.095 49.2755 206.123 49.2036 207.171 49.1008C208.261 48.9981 209.35 48.9261 210.439 48.885C210.439 47.693 210.48 46.5009 210.563 45.3088C210.645 44.1168 210.686 42.935 210.686 41.7635L210.655 41.1161L211.426 41.0544C211.508 41.0544 211.57 41.1058 211.611 41.2086C211.672 41.2908 211.724 41.3935 211.765 41.5168C211.806 41.6196 211.837 41.7327 211.857 41.856C211.878 41.9587 211.888 42.0307 211.888 42.0718C211.95 42.0101 212.022 41.9176 212.104 41.7943C212.186 41.671 212.268 41.5477 212.351 41.4244C212.453 41.301 212.546 41.1983 212.628 41.1161C212.71 41.0133 212.772 40.9619 212.813 40.9619C213.162 40.9619 213.44 41.0236 213.645 41.1469C213.851 41.2702 214.005 41.4449 214.108 41.671C214.231 41.8765 214.303 42.1129 214.324 42.3801C214.365 42.6473 214.385 42.9144 214.385 43.1816C214.385 43.3872 214.375 43.5927 214.355 43.7982C214.355 43.9832 214.355 44.1579 214.355 44.3223V48.176C214.355 50.1696 214.242 52.1632 214.015 54.1568C213.789 56.1299 213.676 58.103 213.676 60.0761C213.676 60.2199 213.697 60.4871 213.738 60.8776C213.8 61.2476 213.83 61.6175 213.83 61.9875C213.83 62.2752 213.8 62.5219 213.738 62.7274C213.676 62.9124 213.563 63.0048 213.399 63.0048C213.255 62.2444 213.162 61.4634 213.121 60.6618C213.121 61.4428 213.152 62.2238 213.214 63.0048L212.936 62.9432C212.895 63.2309 212.803 63.5084 212.659 63.7756C212.536 64.0428 212.32 64.2277 212.012 64.3305ZM197.799 57.5481C197.861 56.8082 197.892 56.058 197.892 55.2975C197.892 54.7632 197.881 54.2391 197.861 53.7252C197.84 53.2525 197.81 52.7695 197.768 52.2763C197.768 52.9545 197.768 53.6327 197.768 54.311C197.789 55.0098 197.799 55.7189 197.799 56.4382V57.5481ZM204.366 50.1182C204.674 50.1182 204.982 50.1079 205.291 50.0874C205.62 50.0668 205.938 50.036 206.246 49.9949H205.63C205.198 49.9949 204.767 50.0052 204.335 50.0257C203.924 50.0463 203.503 50.0566 203.071 50.0566C203.297 50.0977 203.513 50.1182 203.718 50.1182H204.366ZM200.913 50.0874H202.886C202.824 50.0874 202.763 50.0771 202.701 50.0566C202.516 50.036 202.3 50.0154 202.054 49.9949C201.807 49.9743 201.571 49.9538 201.345 49.9332C201.139 49.9127 200.995 49.8921 200.913 49.8716V50.0874ZM213.183 56.3149C213.142 56.9931 213.121 57.6714 213.121 58.3496C213.162 57.6919 213.204 57.0137 213.245 56.3149C213.306 55.5955 213.378 54.8865 213.46 54.1877C213.337 54.8865 213.245 55.5955 213.183 56.3149ZM202.763 52.2454C202.146 52.1838 201.53 52.1529 200.913 52.1529L200.882 52.2454H202.763Z" fill="white"/>
<path d="M190.64 64.0221C190.476 64.0221 190.27 63.9501 190.024 63.8063C189.798 63.683 189.685 63.5185 189.685 63.313C189.685 62.9636 189.726 62.6348 189.808 62.3265C189.89 61.9976 189.952 61.6688 189.993 61.3399L189.87 61.4324L189.5 63.1897C189.253 62.8403 189.13 62.4909 189.13 62.1415C189.13 62.0593 189.15 61.9771 189.191 61.8949C188.801 62.0798 188.4 62.234 187.989 62.3573C187.599 62.4806 187.187 62.5423 186.756 62.5423C185.646 62.5423 184.598 62.3984 183.611 62.1107C182.645 61.8229 181.669 61.4632 180.682 61.0316L180.528 60.6309C179.542 60.2198 178.627 59.6649 177.785 58.9661C176.962 58.2673 176.243 57.476 175.626 56.5922C175.03 55.6879 174.558 54.7219 174.208 53.6943C173.88 52.6666 173.715 51.6184 173.715 50.5497C173.715 49.6248 173.838 48.7205 174.085 47.8367C174.352 46.9529 174.743 46.1308 175.257 45.3704L175.072 45.2779C174.578 46.0383 174.178 46.8502 173.869 47.7134C173.581 48.5766 173.438 49.4707 173.438 50.3955C173.438 51.2999 173.561 52.2145 173.808 53.1393C174.054 54.0437 174.404 54.9172 174.856 55.7598C175.308 56.6025 175.842 57.3835 176.459 58.1029C177.075 58.7811 177.754 59.3669 178.494 59.8601C177.774 59.408 177.096 58.853 176.459 58.1953C175.822 57.4965 175.267 56.7361 174.794 55.914C174.342 55.0713 173.982 54.1978 173.715 53.2935C173.448 52.3686 173.314 51.4746 173.314 50.6113C173.314 49.0904 173.653 47.6928 174.332 46.4186C175.03 45.1237 175.935 44.0139 177.045 43.089C178.154 42.1641 179.408 41.4448 180.806 40.931C182.224 40.3966 183.652 40.1294 185.091 40.1294C186.016 40.1294 186.9 40.2527 187.742 40.4993C188.606 40.746 189.469 41.0132 190.332 41.3009C190.229 41.3626 190.168 41.4448 190.147 41.5475C190.147 41.6503 190.137 41.7531 190.116 41.8558C190.096 41.938 190.055 42.01 189.993 42.0716C189.952 42.1333 189.849 42.1641 189.685 42.1641C189.417 42.1641 189.15 42.123 188.883 42.0408C188.636 41.9586 188.4 41.8661 188.174 41.7633L188.082 42.1641C188.225 42.2052 188.41 42.2874 188.636 42.4108C188.883 42.5341 189.119 42.6779 189.346 42.8424C189.592 42.9862 189.798 43.1507 189.962 43.3356C190.147 43.5206 190.24 43.6953 190.24 43.8597C190.24 44.1064 190.137 44.2605 189.931 44.3222C189.746 44.3633 189.561 44.3838 189.376 44.3838C188.76 44.3838 188.143 44.2913 187.527 44.1064C186.91 43.9214 186.293 43.8289 185.677 43.8289C184.567 43.8289 183.498 43.9831 182.471 44.2913C181.443 44.5996 180.539 45.0518 179.758 45.6478C178.977 46.2233 178.35 46.9427 177.877 47.8059C177.404 48.6485 177.168 49.6248 177.168 50.7347C177.168 51.8651 177.445 52.9338 178 53.9409C178.555 54.9274 179.264 55.8009 180.128 56.5614C181.011 57.3013 181.998 57.8871 183.087 58.3187C184.176 58.7503 185.256 58.9661 186.324 58.9661C186.406 58.9661 186.53 58.9661 186.694 58.9661C186.879 58.9455 187.074 58.9352 187.28 58.9352C187.568 58.9352 187.825 58.9661 188.051 59.0277C188.297 59.0688 188.431 59.1716 188.451 59.336C188.164 59.3771 187.866 59.4285 187.557 59.4902C187.249 59.5313 186.951 59.5518 186.663 59.5518C185.821 59.5518 184.947 59.4388 184.043 59.2127C185.009 59.5005 185.975 59.6443 186.941 59.6443C187.167 59.6443 187.403 59.634 187.65 59.6135C187.897 59.5929 188.133 59.5621 188.359 59.521L188.667 59.891C188.852 59.8498 189.006 59.8293 189.13 59.8293C189.253 59.8087 189.469 59.7368 189.777 59.6135C189.777 58.9558 189.808 58.3187 189.87 57.7021C189.931 57.0649 189.962 56.4175 189.962 55.7598V55.3282C189.962 54.9583 189.931 54.5678 189.87 54.1567C189.829 53.7251 189.685 53.386 189.438 53.1393L189.253 53.2318C189.459 53.7045 189.592 54.2081 189.654 54.7425C189.715 55.2768 189.746 55.8112 189.746 56.3456C189.746 57.2294 189.685 58.0823 189.561 58.9044C189.623 58.2262 189.654 57.5479 189.654 56.8697C189.654 56.7258 189.633 56.4484 189.592 56.0373C189.572 55.6057 189.53 55.1741 189.469 54.7425C189.407 54.2903 189.325 53.8895 189.222 53.5401C189.14 53.1907 189.048 53.016 188.945 53.016C188.451 53.016 187.948 52.9749 187.434 52.8927C186.941 52.8105 186.448 52.7694 185.954 52.7694H185.8L184.968 52.8002C184.968 52.7386 184.957 52.6666 184.937 52.5844C184.937 52.5022 184.937 52.42 184.937 52.3378C184.937 52.1734 184.968 52.0192 185.029 51.8753C185.091 51.7315 185.235 51.6595 185.461 51.6595L185.831 51.6904V51.3204C185.543 51.2382 185.245 51.1046 184.937 50.9196C184.649 50.7347 184.505 50.4675 184.505 50.1181C184.505 49.8714 184.639 49.6762 184.906 49.5323C185.173 49.3885 185.482 49.2857 185.831 49.224C186.201 49.1418 186.561 49.0904 186.91 49.0699C187.259 49.0493 187.527 49.0391 187.712 49.0391C189.582 49.0391 190.99 49.522 191.935 50.488C192.901 51.454 193.384 52.8722 193.384 54.7425C193.384 55.9756 193.281 57.2088 193.076 58.442C192.87 59.6546 192.768 60.8775 192.768 62.1107C192.768 62.3778 192.726 62.6245 192.644 62.8506C192.583 63.0766 192.387 63.1897 192.058 63.1897L192.213 60.97L191.935 63.0972C191.874 63.0972 191.812 63.0972 191.75 63.0972C191.689 63.1178 191.627 63.128 191.565 63.128C191.524 63.128 191.493 63.1178 191.473 63.0972C191.452 63.0972 191.421 63.0972 191.38 63.0972V63.5596C191.216 63.8679 190.969 64.0221 190.64 64.0221ZM189.253 61.5866C188.883 61.6071 188.513 61.6482 188.143 61.7099C187.794 61.7715 187.434 61.8024 187.064 61.8024C185.605 61.8024 184.156 61.566 182.717 61.0933C181.279 60.6 179.963 59.9218 178.771 59.0586C177.6 58.1748 176.592 57.1163 175.75 55.8832C175.154 54.9994 174.712 54.0437 174.424 53.016C174.712 54.1875 175.195 55.246 175.873 56.1914C176.757 57.4657 177.836 58.5345 179.11 59.3977C180.384 60.2609 181.792 60.9083 183.334 61.3399C184.875 61.7715 186.427 61.9873 187.989 61.9873H188.174C188.38 61.9873 188.575 61.9668 188.76 61.9257C188.945 61.8846 189.109 61.7715 189.253 61.5866ZM177.661 54.9891V55.0508C177.661 55.2563 177.795 55.5029 178.062 55.7907C178.329 56.0784 178.637 56.3661 178.987 56.6539C179.336 56.9211 179.675 57.178 180.004 57.4246C180.354 57.6507 180.611 57.8048 180.775 57.8871C180.59 57.7432 180.343 57.5582 180.035 57.3321C179.747 57.106 179.449 56.8594 179.141 56.5922C178.833 56.325 178.535 56.0578 178.247 55.7907C177.98 55.5029 177.785 55.2357 177.661 54.9891ZM190.178 59.6751C190.219 59.2024 190.281 58.7503 190.363 58.3187C190.445 57.8665 190.486 57.4041 190.486 56.9313C190.486 56.6436 190.476 56.3661 190.455 56.099C190.435 55.8318 190.394 55.5543 190.332 55.2666C190.332 56.0065 190.322 56.7464 190.301 57.4863C190.281 58.2262 190.219 58.9558 190.116 59.6751H190.178ZM192.798 56.0373C192.552 56.6539 192.439 57.2602 192.459 57.8562C192.48 58.4111 192.449 58.9661 192.367 59.521C192.47 58.9661 192.552 58.4009 192.613 57.8254C192.696 57.2294 192.757 56.6333 192.798 56.0373ZM174.239 52.122C174.301 52.4303 174.362 52.7283 174.424 53.016C174.362 52.7283 174.301 52.4303 174.239 52.122ZM174.208 51.7829C174.229 51.9062 174.239 52.0192 174.239 52.122C174.219 52.0192 174.208 51.9062 174.208 51.7829Z" fill="white"/>
<path d="M165.933 61.0626C166.364 59.8911 166.662 58.6271 166.827 57.2706C166.991 55.8936 167.114 54.5165 167.197 53.1395C167.197 52.9339 167.186 52.7387 167.166 52.5537C167.166 52.3893 167.166 52.2351 167.166 52.0913C167.104 53.6122 166.981 55.1331 166.796 56.654C166.631 58.216 166.282 59.6547 165.748 60.9701C165.665 60.8057 165.604 60.6618 165.563 60.5385C165.522 60.4152 165.501 60.2713 165.501 60.1069C165.501 59.6136 165.583 59.0998 165.748 58.5654C165.912 58.031 166.015 57.4761 166.056 56.9006L166.488 56.7157C166.488 55.7086 166.529 54.7118 166.611 53.7252C166.693 52.7181 166.734 51.711 166.734 50.704C166.734 50.1901 166.714 49.6866 166.672 49.1933C166.652 48.7001 166.59 48.1862 166.488 47.6519H166.303C166.426 49.1111 166.488 50.5087 166.488 51.8446C166.488 52.5229 166.467 53.1703 166.426 53.7869C166.385 54.3624 166.313 54.9481 166.21 55.5442C166.272 55.092 166.313 54.6604 166.333 54.2493C166.374 53.7766 166.395 53.2731 166.395 52.7387C166.395 51.0739 166.323 49.3886 166.179 47.6827C166.056 45.9563 165.943 44.1887 165.84 42.3801V41.5168C165.902 41.2702 165.933 41.003 165.933 40.7153C165.953 40.4275 165.984 40.1501 166.025 39.8829C166.066 39.6157 166.138 39.3999 166.241 39.2355C166.364 39.0505 166.559 38.958 166.827 38.958L167.351 39.1122L167.536 39.4821H167.813C167.895 39.3588 167.988 39.2971 168.091 39.2971C168.214 39.2971 168.337 39.3485 168.461 39.4513C168.584 39.5335 168.728 39.5746 168.892 39.5746C169.2 39.5746 169.416 39.7904 169.54 40.222C169.663 40.6331 169.745 41.1572 169.786 41.7943C169.827 42.4109 169.848 43.0994 169.848 43.8599C169.848 44.5998 169.889 45.2986 169.971 45.9563C170.033 46.5523 170.084 47.1586 170.125 47.7752C170.187 48.3712 170.218 48.9775 170.218 49.5941C170.218 50.2107 170.197 50.93 170.156 51.7522C170.115 52.5743 170.053 53.4272 169.971 54.311C169.91 55.1742 169.827 56.0374 169.725 56.9006C169.622 57.7639 169.509 58.5346 169.385 59.2128C169.262 59.8911 169.118 60.446 168.954 60.8776C168.789 61.2887 168.625 61.4942 168.461 61.4942C168.419 61.4942 168.358 61.4736 168.276 61.4325C168.419 60.7749 168.553 60.1172 168.676 59.4595C168.82 58.8018 168.944 58.1133 169.046 57.3939C168.902 58.0516 168.748 58.7298 168.584 59.4286C168.44 60.1069 168.276 60.744 168.091 61.3401C168.008 61.2578 167.906 61.2167 167.782 61.2167C167.741 61.2167 167.69 61.2681 167.628 61.3709C167.587 61.4736 167.525 61.597 167.443 61.7408C167.361 61.8642 167.258 61.9772 167.135 62.08C167.012 62.1827 166.878 62.2341 166.734 62.2341C166.59 62.2341 166.477 62.2033 166.395 62.1416C166.313 62.08 166.241 62.008 166.179 61.9258C166.138 61.823 166.087 61.7203 166.025 61.6175C165.984 61.5148 165.922 61.4223 165.84 61.3401L165.933 61.0626ZM169.509 52.1838C169.385 52.5948 169.293 52.975 169.231 53.3244C169.19 53.6533 169.159 53.9719 169.139 54.2802C169.139 54.5884 169.139 54.907 169.139 55.2359C169.139 55.5236 169.129 55.8422 169.108 56.1916C169.19 55.4928 169.262 54.8556 169.324 54.2802C169.406 53.6636 169.468 52.9648 169.509 52.1838ZM166.21 55.6675C166.21 55.6264 166.21 55.5853 166.21 55.5442C166.21 55.5853 166.21 55.6264 166.21 55.6675Z" fill="white"/>
<path d="M151.485 39.7287C151.958 39.7287 152.42 39.6978 152.873 39.6362C153.345 39.554 153.818 39.5129 154.291 39.5129C154.805 39.5129 155.308 39.5437 155.801 39.6053C156.315 39.6464 156.829 39.6876 157.343 39.7287C156.747 39.6259 156.151 39.5642 155.555 39.5437C154.959 39.5026 154.363 39.482 153.767 39.482C153.397 39.482 153.027 39.4923 152.657 39.5129C152.307 39.5129 151.948 39.5231 151.578 39.5437C151.742 39.2765 151.978 39.0915 152.287 38.9888C152.595 38.886 152.893 38.8346 153.181 38.8346H153.335L154.106 38.8654L154.229 39.1737C154.393 39.1326 154.548 39.1121 154.691 39.1121H155.185C155.678 39.1121 156.171 39.1532 156.665 39.2354C157.158 39.297 157.672 39.3279 158.206 39.3279H158.576C158.699 39.3279 158.833 39.3073 158.977 39.2662L159.038 39.1121C159.84 39.1532 160.652 39.1737 161.474 39.1737C161.782 39.1737 162.049 39.2354 162.275 39.3587C162.522 39.482 162.789 39.5437 163.077 39.5437V40.2528C163.077 40.3761 163.056 40.4891 163.015 40.5919C162.974 40.6741 162.902 40.7152 162.8 40.7152L162.615 40.6844V40.9618C162.82 41.1057 162.995 41.2907 163.139 41.5168C163.283 41.7428 163.354 41.9792 163.354 42.2258C163.354 42.4108 163.303 42.5547 163.2 42.6574C163.118 42.7602 163.005 42.8424 162.861 42.9041C162.717 42.9657 162.563 43.0068 162.399 43.0274C162.234 43.0274 162.08 43.0274 161.936 43.0274C160.642 43.0274 159.306 42.9657 157.929 42.8424C156.552 42.6985 155.185 42.5136 153.828 42.2875L153.242 42.4416C153.263 42.5238 153.284 42.7191 153.304 43.0274C153.345 43.3151 153.386 43.6748 153.427 44.1064C153.469 44.5175 153.51 44.9594 153.551 45.4321C153.612 45.9048 153.664 46.3467 153.705 46.7577C153.746 47.1482 153.777 47.4874 153.797 47.7751C153.818 48.0423 153.828 48.1862 153.828 48.2067H155.061V48.515C155.431 48.4122 155.75 48.3609 156.017 48.3609C156.346 48.3609 156.665 48.3917 156.973 48.4533C157.281 48.515 157.62 48.5458 157.99 48.5458C158.155 48.5458 158.309 48.5356 158.453 48.515C158.617 48.4944 158.781 48.4636 158.946 48.4225V48.2067C158.638 48.2273 158.329 48.2478 158.021 48.2684C157.713 48.2684 157.404 48.2684 157.096 48.2684C156.891 48.2684 156.685 48.2684 156.48 48.2684C156.295 48.2478 156.11 48.2273 155.925 48.2067C156.788 48.2067 157.631 48.1759 158.453 48.1142C159.295 48.0526 160.148 48.0217 161.011 48.0217C161.361 48.0217 161.679 48.1142 161.967 48.2992C162.255 48.4842 162.399 48.7719 162.399 49.1624C162.399 49.2652 162.378 49.3577 162.337 49.4399C162.296 49.5221 162.224 49.5632 162.121 49.5632L161.936 49.5324V49.8098C162.142 49.9742 162.306 50.1798 162.43 50.4264C162.553 50.6525 162.615 50.8889 162.615 51.1355C162.615 51.341 162.512 51.5054 162.306 51.6288C162.121 51.7521 161.885 51.8548 161.597 51.937C161.309 51.9987 160.981 52.0398 160.611 52.0604C160.261 52.0809 159.932 52.0912 159.624 52.0912C158.72 52.0912 157.877 52.0193 157.096 51.8754C156.336 51.711 155.565 51.6288 154.784 51.6288C154.661 51.6288 154.496 51.6493 154.291 51.6904C154.352 52.3687 154.383 53.0572 154.383 53.756C154.383 54.7014 154.352 55.6571 154.291 56.6231C154.229 57.5685 154.198 58.514 154.198 59.4594C154.198 59.6033 154.208 59.7882 154.229 60.0143C154.25 60.2404 154.26 60.4665 154.26 60.6926C154.26 60.9803 154.219 61.2372 154.137 61.4633C154.075 61.6894 153.91 61.8024 153.643 61.8024V53.6018C153.582 54.2184 153.541 54.835 153.52 55.4516C153.52 56.0476 153.52 56.6436 153.52 57.2397V60.4459C153.52 60.8775 153.499 61.3297 153.458 61.8024L152.996 61.7099V62.2649C152.914 62.4087 152.801 62.5423 152.657 62.6656C152.533 62.7684 152.39 62.8198 152.225 62.8198C152.02 62.8198 151.855 62.7787 151.732 62.6965C151.609 62.5937 151.506 62.4704 151.424 62.3265C151.362 62.1826 151.321 62.0285 151.3 61.8641C151.28 61.6791 151.269 61.5147 151.269 61.3708C151.269 60.487 151.311 59.593 151.393 58.6887C151.475 57.7843 151.516 56.88 151.516 55.9757C151.516 55.4208 151.485 54.8658 151.424 54.3109C151.362 53.756 151.29 53.201 151.208 52.6461C151.228 53.5093 151.249 54.3623 151.269 55.205C151.311 56.0271 151.331 56.8595 151.331 57.7021C151.331 58.4215 151.311 59.1305 151.269 59.8293C151.228 60.5076 151.146 61.1961 151.023 61.8949C150.756 61.5661 150.622 61.2167 150.622 60.8467C150.622 60.374 150.632 59.891 150.653 59.3977C150.694 58.9045 150.714 58.4215 150.714 57.9488H151.115C150.992 57.2705 150.92 56.5923 150.899 55.914L150.838 53.8485C150.817 53.1497 150.786 52.4611 150.745 51.7829C150.704 51.0841 150.601 50.3956 150.437 49.7173L150.252 49.8098C150.54 52.2351 150.694 54.6809 150.714 57.1472C150.653 55.1741 150.509 53.2216 150.283 51.2896C150.057 49.2343 149.862 47.1688 149.697 45.0929C149.656 44.9902 149.625 44.8771 149.605 44.7538C149.605 44.61 149.605 44.4764 149.605 44.353C149.605 43.9625 149.615 43.5926 149.635 43.2432C149.677 42.8732 149.697 42.4827 149.697 42.0717L150.468 42.01C150.694 42.01 150.817 42.1333 150.838 42.38C150.879 42.6061 150.899 42.791 150.899 42.9349H151.3C151.341 42.6677 151.434 42.38 151.578 42.0717C151.742 41.7428 151.968 41.527 152.256 41.4243L152.225 41.3318L151.948 41.4243C151.742 41.3215 151.588 41.1776 151.485 40.9927C151.403 40.7871 151.362 40.5713 151.362 40.3452C151.362 40.2425 151.382 40.1397 151.424 40.0369C151.465 39.9342 151.485 39.8314 151.485 39.7287ZM153.952 48.9158C154.301 48.9158 154.64 48.9363 154.969 48.9774C155.318 48.998 155.668 49.0083 156.017 49.0083H156.295L157.528 48.9774C156.932 48.8952 156.336 48.8644 155.74 48.8849C155.144 48.9055 154.548 48.8747 153.952 48.7925V48.9158ZM156.911 38.9579C156.233 38.8757 155.555 38.8141 154.876 38.7729C155.945 38.8141 157.024 38.8963 158.114 39.0196C158.381 39.0401 158.638 39.0607 158.884 39.0812C158.206 39.0812 157.548 39.0401 156.911 38.9579ZM153.058 41.8559C153.181 41.8148 153.397 41.7839 153.705 41.7634C154.034 41.7428 154.27 41.7223 154.414 41.7017H153.674C153.345 41.7017 153.109 41.712 152.965 41.7326L153.058 41.8559ZM155.154 51.043C155.38 51.0841 155.606 51.1149 155.832 51.1355C155.997 51.156 156.161 51.1869 156.325 51.228C156.161 51.1869 156.007 51.1458 155.863 51.1047C155.678 51.0636 155.472 51.043 155.246 51.043H155.154ZM159.038 39.0812H158.884C158.925 39.0812 158.977 39.0915 159.038 39.1121V39.0812ZM156.48 51.228C156.438 51.228 156.387 51.228 156.325 51.228C156.387 51.228 156.438 51.228 156.48 51.228Z" fill="white"/>
<path d="M0.970967 74.7901C1.00939 71.7534 1.47312 68.84 1.98414 65.9264C2.70948 61.791 3.88201 57.7766 5.43363 53.8811C7.74127 48.0875 10.8052 42.6931 14.6596 37.7379C17.3378 34.2948 20.297 31.1068 23.5916 28.227C28.768 23.7023 34.4889 19.9873 40.8136 17.1745C44.6817 15.4543 48.6737 14.0866 52.7906 13.0809C54.7941 12.5916 56.838 12.2879 58.8762 11.9509C62.1707 11.4062 65.4895 11.1806 68.8084 11.1776C71.3375 11.1754 73.8848 11.1956 76.4088 11.5567C78.1659 11.8082 79.9335 11.9782 81.6861 12.2795C83.3874 12.572 85.0744 12.9245 86.7388 13.3585C90.2281 14.2683 93.6243 15.4438 96.9333 16.8746C101.506 18.8521 105.795 21.3039 109.817 24.2001C115.129 28.0259 119.79 32.5116 123.766 37.6728C126.503 41.227 128.876 44.9967 130.858 49.0118C132.813 52.972 134.323 57.0775 135.468 61.3288C136.283 64.3578 136.775 67.4297 137.198 70.5296C137.525 72.9326 137.667 75.3471 137.69 77.7486C137.715 80.2794 137.589 82.8267 137.257 85.3571C137.015 87.2113 136.802 89.0706 136.467 90.9094C136.103 92.9026 135.601 94.8694 135.035 96.8185C133.699 101.425 131.837 105.823 129.536 110.042C126.741 115.164 123.316 119.848 119.264 124.087C114.078 129.513 108.16 134.011 101.466 137.506C96.9738 139.852 92.2788 141.698 87.3449 142.978C84.179 143.8 80.9811 144.41 77.7408 144.82C72.9662 145.425 68.169 145.34 63.3819 145.075C60.4337 144.911 57.5097 144.426 54.621 143.807C46.2211 142.006 38.4528 138.753 31.2894 134.078C25.9705 130.607 21.287 126.442 17.1342 121.709C13.3759 117.425 10.2704 112.706 7.72661 107.626C6.11846 104.415 4.78902 101.094 3.72503 97.6861C2.32777 93.211 1.43011 88.608 1.06638 83.9461C0.831431 80.9347 0.570838 77.8943 0.970967 74.7901ZM61.347 16.6958C59.6128 16.7777 57.9213 17.1572 56.2404 17.5211C52.6675 18.2946 49.161 19.2963 45.7622 20.6594C40.1528 22.9091 34.9419 25.824 30.1857 29.5025C25.8238 32.876 21.9779 36.744 18.6478 41.1184C15.7651 44.9048 13.3265 48.9384 11.3825 53.2514C9.18384 58.1294 7.61097 63.2032 6.74927 68.4773C6.31448 71.1384 6.05721 73.8235 5.95099 76.5117C5.79445 80.4732 6.19315 84.4069 6.81087 88.323C7.3448 91.708 8.21682 95.0127 9.35223 98.2382C11.3705 103.972 14.1617 109.323 17.7688 114.274C21.145 118.908 25.066 123.023 29.5802 126.585C34.6532 130.588 40.2365 133.752 46.3075 136.076C49.3798 137.252 52.5329 138.157 55.7518 138.863C57.8468 139.323 59.9588 139.638 62.089 139.878C64.5892 140.159 67.1066 140.424 69.6083 140.339C73.4444 140.209 77.2797 139.955 81.0658 139.182C84.2479 138.532 87.3982 137.775 90.4439 136.687C95.9518 134.721 101.123 132.093 105.908 128.75C111.748 124.671 116.733 119.763 120.881 114.032C123.864 109.909 126.275 105.481 128.182 100.788C129.297 98.0443 130.185 95.2184 130.857 92.3478C131.399 90.0309 131.865 87.6906 132.085 85.3007C132.327 82.6637 132.606 80.0322 132.508 77.3862C132.371 73.7197 132.109 70.0663 131.317 66.4589C130.955 64.8118 130.664 63.1435 130.19 61.5273C128.975 57.3775 127.362 53.3786 125.32 49.5432C122.82 44.8457 119.754 40.5409 116.134 36.6181C113.314 33.5624 110.204 30.8193 106.818 28.3652C102.475 25.2176 97.8095 22.6581 92.8048 20.6854C89.0591 19.2089 85.1935 18.1503 81.2388 17.3434C77.969 16.6762 74.6653 16.4271 71.3518 16.21C70.362 16.1451 69.3731 16.0485 68.3703 16.1404C66.0796 16.3503 63.7682 16.3171 61.347 16.6958Z" fill="white"/>
<path d="M67.2912 90.558C67.5277 93.8322 67.6894 97.0391 68.2397 100.207C68.3299 100.726 68.2766 101.229 68.286 101.739C68.2922 102.077 68.1187 102.258 67.799 102.107C67.3856 101.911 66.9446 101.87 66.5119 101.781C65.5884 101.59 65.1743 101.002 65.019 100.123C64.6706 98.1502 64.1848 96.197 63.9243 94.2146C63.5496 91.3633 63.1365 88.5164 62.7757 85.6629C62.2909 81.8285 62.264 77.9762 62.0882 74.1309C61.9615 71.3588 62.0333 68.5779 62.0245 65.8009C62.0148 62.6905 61.6575 59.594 61.654 56.4821C61.6531 55.6906 61.9183 55.0961 62.4689 54.5662C63.5338 53.5413 64.5836 52.5014 65.6502 51.4782C65.9238 51.2158 66.2088 50.8319 66.6468 51.0165C67.1056 51.2099 66.9559 51.6835 66.9389 52.0503C66.7624 55.8783 66.8241 59.7088 66.8045 63.5383C66.7988 64.6421 66.8919 65.7461 66.9265 66.8505C66.9449 67.437 67.2122 67.5935 67.7924 67.4773C71.4688 66.741 75.1694 66.2149 78.938 66.2963C79.9108 66.3174 80.8646 66.4774 81.8259 66.5844C82.8344 66.6966 83.0272 66.5169 83.0736 65.5398C83.2315 62.2171 82.7428 58.9226 82.6411 55.6113C82.5993 54.2501 82.7017 52.8877 82.5583 51.5265C82.4974 50.948 82.8837 50.7389 83.4139 51.0414C83.7499 51.2331 84.0597 51.4808 84.3481 51.7391C85.2376 52.5358 86.0916 53.3714 86.9973 54.1495C87.6788 54.7349 88.0125 55.4452 88.0119 56.3143C88.0065 65.0319 88.093 73.751 87.949 82.4664C87.8761 86.879 87.4124 91.287 87.0679 95.6927C86.9481 97.2242 86.6671 98.7444 86.4376 100.267C86.2878 101.26 84.8698 102.089 83.8698 101.796C83.2584 101.617 83.1785 101.149 83.2281 100.63C83.3793 99.0433 83.5389 97.4577 83.5542 95.8629C83.5646 94.7829 83.5821 93.7025 83.5627 92.6228C83.5386 91.285 83.7062 89.9529 83.7013 88.6201C83.6849 84.2565 83.6385 79.8925 83.5422 75.5299C83.5072 73.9415 83.1631 72.3663 83.2177 70.7672C83.2328 70.325 82.9375 70.1304 82.5653 70.0084C80.4705 69.3222 78.3136 68.8958 76.1214 68.707C73.509 68.4821 70.8874 68.6178 68.2706 68.712C67.1497 68.7524 66.9412 69 66.9669 70.0655C67.0213 72.3232 67.0155 74.5813 67.0253 76.8394C67.0452 81.3875 67.1944 85.9351 67.2912 90.558Z" fill="white"/>
<path d="M56.8847 79.5642C57.0201 76.6076 56.4534 73.7535 56.5016 70.8738C56.5119 70.2553 56.1773 70.0641 55.6083 70.0917C53.0724 70.2146 50.521 70.159 48.0254 70.7392C47.6727 70.8213 47.2436 70.9872 47.0413 70.5679C46.8162 70.1016 47.2619 69.8325 47.5764 69.6696C48.4776 69.2029 49.4088 68.7882 50.3453 68.392C52.486 67.4864 54.7375 66.8857 56.9346 66.1351C57.6123 65.9036 58.3441 65.9787 59.0409 66.0506C59.6774 66.1164 59.8696 66.6348 59.8478 67.1947C59.8059 68.2723 59.7249 69.3483 59.6691 70.4254C59.484 73.9961 59.5023 77.5583 59.7881 81.1306C59.9762 83.4827 59.7794 85.8619 59.8815 88.2237C60.0113 91.2236 60.2712 94.218 60.4698 97.2152C60.5038 97.7279 60.4913 98.244 60.5357 98.7557C60.6296 99.8372 60.0649 100.502 59.1367 100.944C57.999 101.484 56.8119 101.899 55.56 102.075C52.689 102.478 49.8246 102.476 46.967 101.904C45.8131 101.674 45.0526 101.117 44.6425 99.9915C43.5825 97.0825 42.7772 94.1154 42.1381 91.0895C41.1887 86.594 40.7739 82.0443 40.7321 77.4769C40.7007 74.0434 40.8279 70.5988 41.2955 67.1761C41.5426 65.3674 41.852 63.5766 42.2538 61.7979C42.2807 61.6786 42.3446 61.5538 42.1534 61.3748C41.4934 62.2623 41.0585 63.2309 40.8517 64.2814C40.4646 66.2471 40.073 68.2147 39.7866 70.1959C39.3596 73.1495 39.2311 76.1247 39.2296 79.1103C39.2279 82.3858 39.6843 85.6089 40.107 88.8462C40.5016 91.868 41.2397 94.7993 42.0953 97.7122C42.3995 98.7481 42.7769 99.7634 43.0775 100.8C43.2154 101.276 43.4454 101.847 42.7677 102.139C41.9882 102.475 40.8124 102.151 40.5636 101.505C39.9624 99.9433 39.3211 98.3877 38.8606 96.7842C37.8004 93.0926 37.2034 89.3113 36.7865 85.4998C36.3185 81.2206 36.2158 76.9259 36.4424 72.6392C36.5883 69.8783 36.8619 67.1074 37.4546 64.3898C37.5967 63.7385 37.4841 63.2409 36.9842 62.7957C36.7753 62.6097 36.6043 62.3712 36.458 62.1318C36.1571 61.6395 36.284 61.2393 36.8067 60.9857C37.9868 60.413 39.2149 59.9847 40.5309 59.8271C40.8941 59.7836 41.2589 59.736 41.6153 59.6573C42.6367 59.4316 42.8229 59.5673 42.8268 60.6796C44.5639 58.9596 46.7084 57.9976 48.8574 57.0721C50.6535 56.2986 52.4977 55.6285 54.3395 54.9628C55.4227 54.5713 57.9972 55.7453 58.5367 56.8037C58.6984 57.1209 58.6632 57.3634 58.2794 57.4473C57.9488 57.5197 57.6103 57.5734 57.2725 57.596C54.2063 57.8012 51.292 58.5266 48.5253 59.8725C46.4129 60.9001 45.2355 62.4076 44.9208 64.781C44.5838 67.3229 44.3158 69.8724 43.9921 72.4152C43.7153 74.5892 43.7491 76.7787 43.9737 78.9564C44.216 81.3062 44.305 83.667 44.5886 86.0148C44.9867 89.3098 45.7449 92.5371 46.3926 95.7849C46.6127 96.8882 47.0185 97.9546 47.2936 99.049C47.4221 99.5605 47.7841 99.6816 48.2126 99.7361C50.1851 99.9866 52.1578 100.239 54.1559 100.106C55.3345 100.028 56.3865 99.5761 57.413 99.055C57.8303 98.8432 57.9749 98.4635 57.9418 98.0156C57.756 95.506 57.7984 92.9852 57.5216 90.4784C57.3838 89.2296 57.379 87.9669 57.3065 86.7109C57.1704 84.3528 57.0288 81.9949 56.8847 79.5642Z" fill="white"/>
<path d="M106.41 113.752C100.738 115.814 94.8714 116.954 89.0845 118.381C87.9989 118.648 86.8731 118.779 85.8631 119.321C85.3835 119.578 84.8456 119.27 84.3157 119.38C81.703 119.919 79.0905 120.473 76.457 120.896C74.2381 121.253 72.0501 121.803 69.7899 121.925C68.4667 121.996 67.4807 121.52 66.6596 120.515C63.0722 116.127 59.455 111.761 55.856 107.382C54.8426 106.148 55.0125 105.204 56.3149 104.291C57.2183 103.657 58.2524 103.276 59.2089 102.748C59.5154 102.578 59.8246 102.584 60.0393 102.902C60.282 103.262 60.1014 103.548 59.8101 103.767C59.1441 104.266 58.4715 104.758 57.7859 105.231C57.2548 105.597 57.2363 105.975 57.6381 106.454C59.0387 108.121 60.683 109.563 62.1394 111.178C62.415 111.484 62.7164 111.64 63.0708 111.284C64.5607 109.786 66.5631 109.426 68.5105 109.138C70.7046 108.813 72.9411 108.726 75.1634 108.632C77.1264 108.549 79.1048 108.602 81.0179 109.089C82.4545 109.454 83.7598 110.07 84.4881 111.501C85.025 112.555 85.7867 113.49 86.2623 114.585C86.5477 115.242 87.1487 115.156 87.6874 115.038C88.9133 114.772 90.1352 114.482 91.3473 114.16C95.4379 113.075 99.5693 112.14 103.618 110.897C104.746 110.55 105.527 109.988 106.071 108.942C107.924 105.383 109.335 101.66 110.574 97.8612C111.709 94.3781 112.484 90.8108 113.028 87.2103C113.457 84.3776 113.805 81.4813 112.649 78.6912C112.009 77.1463 111.323 75.6197 110.676 74.0776C109.594 71.5002 109.373 68.8001 109.559 66.0542C109.597 65.4957 109.766 64.9447 109.887 64.3931C109.944 64.1352 110.045 63.875 110.374 63.8735C110.722 63.872 110.903 64.1287 110.949 64.4128C111.046 65.0199 111.112 65.6342 111.149 66.2479C111.262 68.0984 111.45 69.9317 112.113 71.6899C112.707 73.2626 113.567 74.7074 114.333 76.1959C115.571 78.5978 116.267 81.0975 116.244 83.8218C116.223 86.3774 115.932 88.8789 115.513 91.3992C115.121 93.758 114.729 96.1118 114.117 98.4205C113.332 101.378 112.379 104.287 111.11 107.086C110.28 108.915 109.518 110.775 108.26 112.388C107.774 113.012 107.105 113.337 106.41 113.752ZM64.6327 111.383C63.2288 112.107 63.1954 112.297 64.2416 113.428C65.6128 114.912 67.0259 116.361 68.3274 117.901C69.0895 118.803 69.9295 118.961 71.0171 118.722C73.6452 118.145 76.2824 117.607 78.9209 117.077C80.1249 116.835 81.2765 116.385 82.5153 116.273C83.1096 116.219 83.2006 115.782 82.9994 115.295C82.6649 114.486 82.3033 113.688 81.9657 112.881C81.7404 112.342 81.3061 112.012 80.7936 111.801C78.8167 110.985 76.7209 110.642 74.6034 110.531C72.6702 110.431 70.7274 110.51 68.7889 110.502C67.3776 110.496 66.047 110.858 64.6327 111.383Z" fill="white"/>
<path d="M20.1874 66.1919C20.2287 64.8055 20.3249 63.4946 20.2946 62.1866C20.2644 60.88 20.9032 59.9241 21.9097 59.2748C25.2132 57.1439 28.4472 54.9153 31.7114 52.7291C32.5302 52.1808 33.3952 51.6749 34.2963 51.2734C37.0857 50.0304 39.2142 48.0093 41.2141 45.8135C42.069 44.875 42.9652 43.9724 43.8499 43.0603C44.2741 42.623 44.7355 42.3217 45.419 42.3293C49.1385 42.3708 52.8588 42.3524 56.5782 42.3988C57.6852 42.4126 58.6944 42.18 59.6795 41.7085C63.6789 39.7941 67.694 37.9111 71.686 35.9819C72.5441 35.5672 73.2491 35.5624 74.0982 36.0661C77.1006 37.8472 80.15 39.552 83.1813 41.2862C83.7825 41.6302 84.3858 41.7648 85.1197 41.6948C88.9206 41.3321 92.7296 41.0519 96.5338 40.7209C97.5308 40.6342 98.4569 40.7658 99.339 41.2474C102.167 42.7912 104.852 44.5288 107.043 46.8965C108.274 48.2266 109.503 49.5716 110.313 51.2145C110.392 51.3759 110.492 51.5293 110.556 51.6964C110.685 52.0392 110.831 52.4281 110.426 52.6644C110.063 52.8756 109.856 52.5118 109.648 52.3108C108.417 51.1212 107.383 49.7502 106.056 48.6457C103.734 46.7119 101.357 44.8655 98.4971 43.7348C97.7185 43.4269 96.9359 43.2506 96.055 43.3531C92.2617 43.7946 88.4489 44.0842 84.6855 44.753C83.4466 44.9732 82.508 44.3551 81.549 43.7828C78.8877 42.1944 76.2301 40.5999 73.5867 38.9831C72.9923 38.6195 72.511 38.6889 71.9178 39.0073C68.081 41.0666 64.222 43.0857 60.3774 45.1311C59.5693 45.561 58.7266 45.7348 57.8112 45.7148C54.6152 45.6449 51.4024 45.7707 48.2285 45.4801C46.442 45.3165 45.2999 45.8057 44.296 47.1232C43.6709 47.9435 42.887 48.646 42.2434 49.4543C40.9256 51.109 39.3119 52.3462 37.36 53.2296C33.9274 54.7834 30.7833 56.8428 27.5633 58.7679C26.2453 59.5559 24.9835 60.4394 23.5737 61.0761C23.1189 61.2815 22.8283 61.595 22.7621 62.1201C22.4258 64.7896 21.7247 67.4216 21.925 70.1458C21.942 70.3771 21.9241 70.642 21.6653 70.7419C21.3667 70.8572 21.1528 70.6484 21.0082 70.4373C20.4505 69.6228 20.2967 68.6819 20.2087 67.7332C20.1637 67.2484 20.1918 66.7571 20.1874 66.1919Z" fill="white"/>
<path d="M100.731 87.6401C100.743 84.8928 100.976 82.2239 100.732 79.5519C100.389 75.7932 100.321 72.0142 99.8411 68.2647C99.2778 63.8598 98.7438 59.4513 98.2007 55.0439C98.0281 53.6433 97.9222 53.6164 96.5045 53.5282C94.4252 53.3989 92.4447 53.8831 90.4593 54.3299C89.4751 54.5513 88.674 54.3812 87.8994 53.7661C86.8237 52.9118 85.8043 51.9801 84.5621 51.3401C84.2853 51.1975 84.0369 50.9452 84.089 50.599C84.1442 50.2331 84.4267 50.0335 84.785 49.9498C86.3365 49.5874 87.88 49.1868 89.4938 49.1776C91.9298 49.1637 94.3674 49.0839 96.7942 49.376C99.5722 49.7103 102.294 50.2478 105.005 50.9809C106.679 51.4335 107.603 52.35 108.365 53.6791C108.495 53.907 108.654 54.1312 108.504 54.394C108.316 54.7236 108.01 54.5921 107.732 54.5463C106.21 54.2959 104.688 54.0423 103.164 53.7975C102.299 53.6585 102.141 53.8124 102.247 54.692C102.619 57.7758 103.027 60.8558 103.359 63.9437C103.587 66.0617 103.544 68.1965 103.743 70.3232C104.495 78.3587 104.825 86.4145 104.726 94.4859C104.717 95.186 104.497 95.7108 103.935 96.1505C103.096 96.8068 102.302 97.5175 101.478 98.1932C101.226 98.3998 100.965 98.7108 100.587 98.4764C100.255 98.2703 100.287 97.9074 100.302 97.5682C100.446 94.2845 100.588 91.0008 100.731 87.6401Z" fill="white"/>
<path d="M23.4611 70.6637C23.5211 69.1501 23.5742 67.7124 23.6438 66.2756C23.6902 65.3198 24.075 64.6258 24.9749 64.0872C26.5116 63.1675 28.139 62.5005 29.827 61.9274C31.0207 61.5222 32.2442 61.416 33.473 61.5499C34.8434 61.6991 35.725 62.6887 36.5952 63.6006C36.9249 63.9461 36.511 64.3401 35.8746 64.2959C33.181 64.1088 30.6219 64.6545 28.1269 65.6149C27.3728 65.9052 27.0903 66.3589 27.1371 67.1422C27.2229 68.5784 27.2328 70.0188 27.2848 71.4571C27.3111 72.1832 27.52 72.3202 28.1399 71.9925C30.0938 70.9594 32.2412 70.6422 34.3933 70.3414C34.7784 70.2875 35.1846 70.339 35.2653 70.7896C35.3566 71.3 34.9414 71.4431 34.5362 71.509C31.8637 71.9436 29.759 73.3694 27.8504 75.153C27.4636 75.5145 27.299 75.9099 27.2887 76.4423C27.2318 79.3844 27.6885 82.2696 28.1462 85.1643C28.3746 86.6085 28.5278 88.0598 28.8882 89.4845C29.6379 92.4479 30.7528 95.248 32.4859 97.805C33.0374 98.6187 33.5689 99.4389 34.2243 100.178C34.4284 100.408 34.6865 100.702 34.4406 100.998C34.1418 101.356 33.8119 101.041 33.5318 100.892C32.4174 100.296 31.4545 99.5007 30.5614 98.6274C29.3366 97.4297 28.1754 96.1789 27.1185 94.8282C26.1409 93.5791 25.6562 92.2015 25.5064 90.6479C25.3686 89.219 25.1166 87.7993 24.8788 86.3814C24.5471 84.4036 24.3169 82.4154 24.1859 80.4166C23.9743 77.1888 23.5659 73.9753 23.4611 70.6637Z" fill="white"/>
<path d="M100.153 100.174C100.645 99.9198 101.086 99.6957 101.52 99.4591C101.841 99.2846 102.168 99.1757 102.444 99.4927C102.7 99.7872 102.635 100.12 102.426 100.42C102.039 100.976 101.554 101.444 101.015 101.857C98.2227 103.993 95.1141 104.953 91.5522 104.43C90.4009 104.26 89.2982 103.998 88.2331 103.562C87.97 103.454 87.7231 103.299 87.4864 103.14C87.2203 102.962 86.9682 102.736 87.0893 102.38C87.2057 102.039 87.545 102.09 87.8265 102.081C89.1855 102.038 90.5424 102.118 91.9059 102.038C94.7493 101.871 97.5148 101.444 100.153 100.174Z" fill="white"/>
<path d="M84.2376 103.654C83.7016 104.598 82.7193 104.68 81.8711 104.938C79.0046 105.808 76.0958 105.701 73.1754 105.201C71.7827 104.962 70.3944 104.723 69.0827 104.181C68.8433 104.083 68.589 103.991 68.3879 103.837C68.0983 103.616 68.1008 103.301 68.2709 103.003C68.4229 102.737 68.6305 102.601 68.9825 102.693C73.0518 103.764 77.1583 104.019 81.3151 103.232C81.8551 103.129 82.395 103.044 82.9143 102.862C83.7186 102.579 83.9698 102.718 84.2376 103.654Z" fill="white"/>
</svg>
